<?xml version="1.0" encoding="UTF-8"?>
<svg version="1.1" xmlns="http://www.w3.org/2000/svg" width="500" height="500">
<path d="M0 0 C1.34893845 -0.00956978 1.34893845 -0.00956978 2.72512817 -0.01933289 C3.68965912 -0.02044571 4.65419006 -0.02155853 5.64794922 -0.02270508 C7.16785965 -0.02769768 7.16785965 -0.02769768 8.71847534 -0.03279114 C10.8686274 -0.03785151 13.0187873 -0.04019974 15.16894531 -0.04003906 C18.39255575 -0.04219613 21.6158069 -0.06027878 24.83935547 -0.0793457 C64.61748035 -0.18925228 102.23173052 9.80335543 137.13720703 28.94506836 C139.84025058 30.42613859 142.55656177 31.88164313 145.27368164 33.33666992 C147.62877664 34.59923592 149.978529 35.87160024 152.32763672 37.14526367 C152.32763672 37.80526367 152.32763672 38.46526367 152.32763672 39.14526367 C152.99279297 39.35795898 153.65794922 39.5706543 154.34326172 39.78979492 C158.35804748 41.61326437 161.59602615 44.15113747 165.07763672 46.83276367 C165.78339844 47.37078613 166.48916016 47.90880859 167.21630859 48.46313477 C168.61660062 49.53199863 170.01508989 50.60322903 171.41162109 51.67700195 C173.05670762 52.93764802 174.71441635 54.18179255 176.37451172 55.42260742 C177.18404297 56.03233398 177.99357422 56.64206055 178.82763672 57.27026367 C179.51857422 57.7884668 180.20951172 58.30666992 180.92138672 58.84057617 C181.38544922 59.27112305 181.84951172 59.70166992 182.32763672 60.14526367 C182.32763672 60.80526367 182.32763672 61.46526367 182.32763672 62.14526367 C182.98763672 62.14526367 183.64763672 62.14526367 184.32763672 62.14526367 C186.04009584 63.76484365 187.69915968 65.44126306 189.32763672 67.14526367 C190.17583984 67.9934668 191.02404297 68.84166992 191.89794922 69.71557617 C194.37451172 72.19213867 196.85107422 74.66870117 199.32763672 77.14526367 C199.92318359 77.69956055 200.51873047 78.25385742 201.13232422 78.82495117 C202.32763672 80.14526367 202.32763672 80.14526367 202.32763672 82.14526367 C202.98763672 82.14526367 203.64763672 82.14526367 204.32763672 82.14526367 C206.08165519 84.14898616 207.71289152 86.15796939 209.32763672 88.27026367 C209.81385498 88.89900391 210.30007324 89.52774414 210.80102539 90.17553711 C218.20042224 99.80805826 225.3248707 109.56896164 231.32763672 120.14526367 C232.04488916 121.38365816 232.76235413 122.62192957 233.47998047 123.86010742 C245.97429926 145.55910823 254.65714582 168.75617788 260.32763672 193.14526367 C260.5094751 193.89517578 260.69131348 194.64508789 260.87866211 195.41772461 C261.9800535 200.09678009 262.63635902 204.5788869 262.89013672 209.39526367 C263.12446873 213.99927015 263.12446873 213.99927015 263.83493042 218.54150391 C264.32097999 221.11008548 264.45451852 223.42935193 264.45703125 226.03979492 C264.46018341 226.9842749 264.46333557 227.92875488 264.46658325 228.90185547 C264.46354691 230.41453003 264.46354691 230.41453003 264.46044922 231.95776367 C264.46188431 233.52747925 264.46188431 233.52747925 264.46334839 235.12890625 C264.46402781 237.33780986 264.46219012 239.54671548 264.45800781 241.75561523 C264.45265625 245.13293958 264.45796089 248.51013095 264.46435547 251.88745117 C264.46369465 254.03588896 264.4624134 256.18432668 264.46044922 258.33276367 C264.46247345 259.34121338 264.46449768 260.34966309 264.46658325 261.38867188 C264.46343109 262.33315186 264.46027893 263.27763184 264.45703125 264.25073242 C264.45583786 265.49052856 264.45583786 265.49052856 264.45462036 266.75537109 C264.31937123 269.30082407 263.85482935 271.65433381 263.32763672 274.14526367 C263.17843854 276.30786826 263.05420869 278.4722738 262.94873047 280.63745117 C262.46659535 287.75010093 261.17308155 294.37931457 259.39013672 301.27026367 C259.0858374 302.46095459 258.78153809 303.65164551 258.46801758 304.87841797 C253.47946823 323.75471248 247.30556714 342.29940712 237.32763672 359.14526367 C236.27959848 361.07932457 235.23754295 363.01664421 234.20263672 364.95776367 C226.72076801 378.56116133 218.12031676 391.05112512 208.14013672 402.93823242 C206.21028608 405.213616 206.21028608 405.213616 204.32763672 408.14526367 C203.66763672 408.14526367 203.00763672 408.14526367 202.32763672 408.14526367 C202.32763672 408.80526367 202.32763672 409.46526367 202.32763672 410.14526367 C200.70805674 411.85772279 199.03163733 413.51678663 197.32763672 415.14526367 C196.47943359 415.9934668 195.63123047 416.84166992 194.75732422 417.71557617 C192.28076172 420.19213867 189.80419922 422.66870117 187.32763672 425.14526367 C186.77333984 425.74081055 186.21904297 426.33635742 185.64794922 426.94995117 C184.32763672 428.14526367 184.32763672 428.14526367 182.32763672 428.14526367 C182.32763672 428.80526367 182.32763672 429.46526367 182.32763672 430.14526367 C180.32391423 431.89928214 178.314931 433.53051848 176.20263672 435.14526367 C175.57389648 435.63148193 174.94515625 436.1177002 174.29736328 436.61865234 C164.66484213 444.01804919 154.90393875 451.14249765 144.32763672 457.14526367 C143.08924223 457.86251611 141.85097082 458.57998108 140.61279297 459.29760742 C119.21933771 471.61599261 96.28576081 480.21206053 72.32763672 486.14526367 C71.39306641 486.37858398 70.45849609 486.6119043 69.49560547 486.85229492 C63.55430408 488.18644822 57.59916541 488.56597486 51.52685547 488.89916992 C48.44223473 489.06662211 48.44223473 489.06662211 45.92070007 489.65156555 C43.42507004 490.12671316 41.17524462 490.27825011 38.6394043 490.29052734 C37.28562431 490.30009712 37.28562431 490.30009712 35.90449524 490.30986023 C34.93682724 490.31097305 33.96915924 490.31208588 32.97216797 490.31323242 C31.95652267 490.31656082 30.94087738 490.31988922 29.89445496 490.32331848 C27.74010672 490.32837842 25.58575066 490.3307271 23.43139648 490.33056641 C20.19680071 490.33272584 16.96256158 490.3508158 13.72802734 490.36987305 C-2.86478684 490.41690352 -18.83053188 489.53704437 -34.98486328 485.45776367 C-36.03319336 485.19938721 -37.08152344 484.94101074 -38.16162109 484.67480469 C-47.76809314 482.24272218 -57.15476894 479.26693014 -66.48193359 475.9284668 C-68.38063772 475.24957214 -70.28755598 474.59373446 -72.19580078 473.94213867 C-82.18333005 470.36977304 -91.39710223 465.23706796 -100.67236328 460.14526367 C-101.75646484 459.55745117 -102.84056641 458.96963867 -103.95751953 458.36401367 C-116.2709313 451.45359826 -127.79701377 442.99346929 -138.57080078 433.88745117 C-140.75643758 432.01411578 -140.75643758 432.01411578 -143.67236328 430.14526367 C-143.67236328 429.48526367 -143.67236328 428.82526367 -143.67236328 428.14526367 C-144.33236328 428.14526367 -144.99236328 428.14526367 -145.67236328 428.14526367 C-147.3848224 426.52568369 -149.04388624 424.84926428 -150.67236328 423.14526367 C-151.52056641 422.29706055 -152.36876953 421.44885742 -153.24267578 420.57495117 C-155.71923828 418.09838867 -158.19580078 415.62182617 -160.67236328 413.14526367 C-161.26791016 412.5909668 -161.86345703 412.03666992 -162.47705078 411.46557617 C-163.67236328 410.14526367 -163.67236328 410.14526367 -163.67236328 408.14526367 C-164.33236328 408.14526367 -164.99236328 408.14526367 -165.67236328 408.14526367 C-167.42638175 406.14154119 -169.05761808 404.13255796 -170.67236328 402.02026367 C-171.15858154 401.39152344 -171.6447998 400.7627832 -172.14575195 400.11499023 C-179.5451488 390.48246908 -186.66959726 380.7215657 -192.67236328 370.14526367 C-193.38961572 368.90686918 -194.10708069 367.66859778 -194.82470703 366.43041992 C-207.14419048 345.03505731 -215.7331341 322.10351018 -221.67236328 298.14526367 C-221.89408203 297.26870117 -222.11580078 296.39213867 -222.34423828 295.48901367 C-225.83420746 280.04854398 -225.99773576 263.99273634 -225.93310547 248.24780273 C-225.92237386 245.14832002 -225.933078 242.04941663 -225.94580078 238.94995117 C-225.97466062 199.40608808 -215.8434519 161.85788739 -196.79003906 127.19262695 C-195.8317934 125.43730844 -194.90332245 123.66579251 -193.98095703 121.89135742 C-190.46862683 115.16337886 -186.2517826 109.1870888 -181.67236328 103.14526367 C-180.92470703 102.14108398 -180.17705078 101.1369043 -179.40673828 100.10229492 C-177.17447683 97.10696451 -174.92535097 94.12502159 -172.67236328 91.14526367 C-171.65529297 89.78014648 -171.65529297 89.78014648 -170.61767578 88.38745117 C-169.99634766 87.5650293 -169.37501953 86.74260742 -168.73486328 85.89526367 C-168.18958984 85.16823242 -167.64431641 84.44120117 -167.08251953 83.69213867 C-166.61716797 83.18166992 -166.15181641 82.67120117 -165.67236328 82.14526367 C-165.01236328 82.14526367 -164.35236328 82.14526367 -163.67236328 82.14526367 C-163.67236328 81.48526367 -163.67236328 80.82526367 -163.67236328 80.14526367 C-162.0527833 78.43280455 -160.37636389 76.77374071 -158.67236328 75.14526367 C-157.82416016 74.29706055 -156.97595703 73.44885742 -156.10205078 72.57495117 C-153.62548828 70.09838867 -151.14892578 67.62182617 -148.67236328 65.14526367 C-148.11806641 64.5497168 -147.56376953 63.95416992 -146.99267578 63.34057617 C-145.67236328 62.14526367 -145.67236328 62.14526367 -143.67236328 62.14526367 C-143.67236328 61.48526367 -143.67236328 60.82526367 -143.67236328 60.14526367 C-141.66867268 58.39127312 -139.65945016 56.76020932 -137.54736328 55.14526367 C-136.92079834 54.65977051 -136.2942334 54.17427734 -135.64868164 53.67407227 C-129.11823021 48.65014669 -122.41006991 43.88511492 -115.67236328 39.14526367 C-115.07311035 38.70883545 -114.47385742 38.27240723 -113.85644531 37.82275391 C-110.79990047 35.5999235 -107.85791985 33.56408306 -104.42236328 31.95776367 C-101.14452073 30.39222693 -97.94594043 28.7527226 -94.78955078 26.95776367 C-75.45818321 16.10499008 -54.23277364 9.10668124 -32.67236328 4.14526367 C-31.92680176 3.96487549 -31.18124023 3.7844873 -30.41308594 3.59863281 C-25.72927713 2.49583127 -21.24376002 1.83680588 -16.42236328 1.58276367 C-11.81184193 1.34685903 -11.81184193 1.34685903 -7.26223755 0.63896179 C-4.77279868 0.1644093 -2.52958173 0.01229403 0 0 Z M-61.67236328 30.14526367 C-63.23363023 30.85631069 -64.79606135 31.56480929 -66.35986328 32.27026367 C-67.03194824 32.57391846 -67.7040332 32.87757324 -68.39648438 33.19042969 C-70.53421514 34.08730429 -72.64603164 34.7813965 -74.86376953 35.44995117 C-79.90517221 37.10641945 -84.33715529 39.50294042 -88.92236328 42.14526367 C-90.08638672 42.80268555 -90.08638672 42.80268555 -91.27392578 43.47338867 C-98.69616281 47.67847859 -105.72168226 52.19882732 -112.67236328 57.14526367 C-113.60048828 57.80139648 -114.52861328 58.4575293 -115.48486328 59.13354492 C-120.52162184 62.73622639 -125.33529361 66.43488283 -129.91845703 70.60229492 C-131.67236328 72.14526367 -131.67236328 72.14526367 -133.89501953 73.71948242 C-134.48154297 74.18999023 -135.06806641 74.66049805 -135.67236328 75.14526367 C-135.67236328 75.80526367 -135.67236328 76.46526367 -135.67236328 77.14526367 C-136.27048828 77.43401367 -136.86861328 77.72276367 -137.48486328 78.02026367 C-139.8656412 79.19268393 -139.8656412 79.19268393 -142.67236328 81.14526367 C-142.67236328 81.80526367 -142.67236328 82.46526367 -142.67236328 83.14526367 C-143.33236328 83.14526367 -143.99236328 83.14526367 -144.67236328 83.14526367 C-145.96024571 84.61670636 -147.17806655 86.14983517 -148.35986328 87.70776367 C-151.36396704 91.57329828 -154.43554244 95.06275901 -158.03173828 98.37963867 C-160.2479664 100.76472226 -161.88541983 103.42416217 -163.67236328 106.14526367 C-164.56113801 107.37012407 -165.45871514 108.58863278 -166.36376953 109.80151367 C-166.83363281 110.43186523 -167.30349609 111.0622168 -167.78759766 111.71166992 C-168.75384584 113.00260878 -169.72260673 114.29167066 -170.69384766 115.57885742 C-173.46101117 119.30139651 -175.65819878 122.94862009 -177.67236328 127.14526367 C-178.9436812 129.24107647 -180.23629648 131.3240842 -181.54736328 133.39526367 C-186.15826373 140.79722259 -190.19099677 148.11892589 -192.79345703 156.46166992 C-193.98004345 160.08471377 -195.32553836 163.64169659 -196.67236328 167.20776367 C-196.92171631 167.86856934 -197.17106934 168.529375 -197.42797852 169.21020508 C-197.79644897 170.18546143 -197.79644897 170.18546143 -198.17236328 171.18041992 C-198.41986328 171.83929199 -198.66736328 172.49816406 -198.92236328 173.17700195 C-199.40982258 174.45626527 -199.90921377 175.73106772 -200.42236328 177.00024414 C-216.91963295 218.59785183 -214.90105342 279.61639581 -198.10986328 320.77026367 C-197.31226811 322.56861504 -196.50089044 324.36095192 -195.67236328 326.14526367 C-194.94034507 327.74813112 -194.2109893 329.35221837 -193.48486328 330.95776367 C-193.03046875 331.92649414 -193.03046875 331.92649414 -192.56689453 332.91479492 C-191.67236328 335.14526367 -191.67236328 335.14526367 -190.89892578 338.27416992 C-189.49835642 343.33204449 -186.80675755 347.73004876 -184.23486328 352.27026367 C-183.744375 353.15069336 -183.25388672 354.03112305 -182.74853516 354.93823242 C-178.43400784 362.65896552 -173.80031505 369.93951907 -168.67236328 377.14526367 C-168.01623047 378.07338867 -167.36009766 379.00151367 -166.68408203 379.95776367 C-162.619929 385.63968636 -158.37048918 390.979359 -153.67236328 396.14526367 C-152.21172645 397.76819348 -150.75341381 399.39321789 -149.29736328 401.02026367 C-148.62962891 401.76018555 -147.96189453 402.50010742 -147.27392578 403.26245117 C-145.67236328 405.14526367 -145.67236328 405.14526367 -144.67236328 407.14526367 C-144.01236328 407.14526367 -143.35236328 407.14526367 -142.67236328 407.14526367 C-142.67236328 407.80526367 -142.67236328 408.46526367 -142.67236328 409.14526367 C-141.2009206 410.4331461 -139.66779178 411.65096694 -138.10986328 412.83276367 C-134.89355129 415.33082622 -131.90554674 417.80974039 -129.10986328 420.77026367 C-126.08952068 423.88894301 -122.85916086 426.14720819 -119.20361328 428.46948242 C-115.17121593 431.13907882 -111.38769424 434.13297904 -107.56689453 437.09448242 C-104.68864686 439.13372673 -101.84687592 440.6187442 -98.67236328 442.14526367 C-96.39197048 443.42313912 -94.12245867 444.71192188 -91.85986328 446.02026367 C-90.62036992 446.73005623 -89.38078665 447.43969181 -88.14111328 448.14916992 C-86.11336564 449.31282056 -84.09327943 450.48626034 -82.07861328 451.67260742 C-77.93556699 454.07236487 -73.96377454 455.85752693 -69.39111328 457.26635742 C-65.75214119 458.44274926 -62.18658569 459.79301269 -58.60986328 461.14526367 C-57.94913818 461.3946167 -57.28841309 461.64396973 -56.60766602 461.90087891 C-55.95741455 462.14652588 -55.30716309 462.39217285 -54.63720703 462.64526367 C-53.64889893 463.01651367 -53.64889893 463.01651367 -52.640625 463.39526367 C-51.36136168 463.88272298 -50.08655923 464.38211416 -48.81738281 464.89526367 C-7.21977512 481.39253334 53.79876886 479.37395381 94.95263672 462.58276367 C96.75098809 461.7851685 98.54332496 460.97379083 100.32763672 460.14526367 C101.93050417 459.41324547 103.53459141 458.68388969 105.14013672 457.95776367 C105.78595703 457.65483398 106.43177734 457.3519043 107.09716797 457.03979492 C109.32763672 456.14526367 109.32763672 456.14526367 112.45654297 455.37182617 C117.51441754 453.97125681 121.91242181 451.27965794 126.45263672 448.70776367 C127.33306641 448.21727539 128.21349609 447.72678711 129.12060547 447.22143555 C136.84133856 442.90690823 144.12189212 438.27321544 151.32763672 433.14526367 C152.25576172 432.48913086 153.18388672 431.83299805 154.14013672 431.15698242 C159.8220594 427.09282939 165.16173205 422.84338957 170.32763672 418.14526367 C171.95056653 416.68462684 173.57559094 415.2263142 175.20263672 413.77026367 C175.94255859 413.1025293 176.68248047 412.43479492 177.44482422 411.74682617 C179.32763672 410.14526367 179.32763672 410.14526367 181.32763672 409.14526367 C181.32763672 408.48526367 181.32763672 407.82526367 181.32763672 407.14526367 C181.98763672 407.14526367 182.64763672 407.14526367 183.32763672 407.14526367 C184.61551915 405.67382099 185.83333999 404.14069217 187.01513672 402.58276367 C189.51319926 399.36645168 191.99211344 396.37844713 194.95263672 393.58276367 C198.07131606 390.56242107 200.32958124 387.33206125 202.65185547 383.67651367 C205.32145186 379.64411632 208.31535208 375.86059463 211.27685547 372.03979492 C213.31328973 369.16551343 214.78918594 366.30786143 216.32763672 363.14526367 C217.59895464 361.04945087 218.89156991 358.96644314 220.20263672 356.89526367 C224.81353717 349.49330476 228.84627021 342.17160145 231.44873047 333.82885742 C232.63531688 330.20581357 233.9808118 326.64883076 235.32763672 323.08276367 C235.57698975 322.42195801 235.82634277 321.76115234 236.08325195 321.08032227 C236.32889893 320.43015137 236.5745459 319.77998047 236.82763672 319.11010742 C237.19888672 318.12179932 237.19888672 318.12179932 237.57763672 317.11352539 C238.06509602 315.83426208 238.56448721 314.55945962 239.07763672 313.2902832 C255.57490638 271.69267551 253.55632686 210.67413153 236.76513672 169.52026367 C235.96754155 167.7219123 235.15616388 165.92957543 234.32763672 164.14526367 C233.59561851 162.54239622 232.86626274 160.93830898 232.14013672 159.33276367 C231.83720703 158.68694336 231.53427734 158.04112305 231.22216797 157.37573242 C230.32763672 155.14526367 230.32763672 155.14526367 229.55419922 152.01635742 C228.15362986 146.95848286 225.46203099 142.56047858 222.89013672 138.02026367 C222.39964844 137.13983398 221.90916016 136.2594043 221.40380859 135.35229492 C217.08928128 127.63156183 212.45558849 120.35100827 207.32763672 113.14526367 C206.67150391 112.21713867 206.01537109 111.28901367 205.33935547 110.33276367 C201.736674 105.29600511 198.03801756 100.48233334 193.87060547 95.89916992 C192.32763672 94.14526367 192.32763672 94.14526367 190.75341797 91.92260742 C190.28291016 91.33608398 189.81240234 90.74956055 189.32763672 90.14526367 C188.66763672 90.14526367 188.00763672 90.14526367 187.32763672 90.14526367 C186.89451172 89.24807617 186.89451172 89.24807617 186.45263672 88.33276367 C185.28021646 85.95198575 185.28021646 85.95198575 183.32763672 83.14526367 C182.66763672 83.14526367 182.00763672 83.14526367 181.32763672 83.14526367 C181.32763672 82.48526367 181.32763672 81.82526367 181.32763672 81.14526367 C179.85619404 79.85738124 178.32306522 78.6395604 176.76513672 77.45776367 C172.89960211 74.45365991 169.41014138 71.38208452 166.09326172 67.78588867 C163.70817813 65.56966056 161.04873822 63.93220712 158.32763672 62.14526367 C157.10277632 61.25648894 155.88426761 60.35891181 154.67138672 59.45385742 C154.04103516 58.98399414 153.41068359 58.51413086 152.76123047 58.0300293 C151.47029161 57.06378112 150.18122973 56.09502022 148.89404297 55.1237793 C145.17150388 52.35661578 141.5242803 50.15942817 137.32763672 48.14526367 C135.23182392 46.87394575 133.14881619 45.58133048 131.07763672 44.27026367 C123.6756778 39.65936322 116.3539745 35.62663018 108.01123047 33.02416992 C104.38818662 31.83758351 100.8312038 30.49208859 97.26513672 29.14526367 C96.60433105 28.89591064 95.94352539 28.64655762 95.26269531 28.38964844 C94.61252441 28.14400146 93.96235352 27.89835449 93.29248047 27.64526367 C92.6336084 27.39776367 91.97473633 27.15026367 91.29589844 26.89526367 C90.01663512 26.40780437 88.74183267 25.90841318 87.47265625 25.39526367 C44.33541884 8.2873895 -19.78766114 10.70107166 -61.67236328 30.14526367 Z " fill="#212121" transform="translate(230.67236328125,4.854736328125)"/>
<path d="M0 0 C5.29340519 2.99626709 8.97912031 6.83526183 10.75 12.75 C12.06495079 19.8452553 11.07078621 26.02991782 6.9765625 32.015625 C3.27848644 36.14774755 -1.44837865 39.12862622 -6.6875 40.875 C-7.51908257 60.38174353 -7.95041816 79.87594773 -8.21972656 99.39691162 C-8.27120094 103.07909376 -8.32620929 106.76122325 -8.38085938 110.44335938 C-8.48639737 117.58719355 -8.58823909 124.7310756 -8.6875 131.875 C-7.58269287 132.01993896 -6.47788574 132.16487793 -5.33959961 132.31420898 C-2.10957355 132.81018932 -0.07250463 133.40245362 2.75 134.9375 C3.42933594 135.29972656 4.10867188 135.66195312 4.80859375 136.03515625 C5.30488281 136.31230469 5.80117188 136.58945313 6.3125 136.875 C14.4975757 126.39113709 22.28922418 115.67421633 29.875 104.75 C32.40049229 101.12441037 35.02097747 97.58562562 37.6875 94.0625 C43.14430468 86.83667974 48.28998582 79.40877127 53.3125 71.875 C52.8175 71.235625 52.3225 70.59625 51.8125 69.9375 C49.83242487 65.89484662 49.70131104 62.31207311 50.3125 57.875 C51.33203125 55.59765625 51.33203125 55.59765625 52.3125 53.875 C52.9725 53.875 53.6325 53.875 54.3125 53.875 C54.3125 53.215 54.3125 52.555 54.3125 51.875 C58.88266351 49.22578281 63.15465899 49.34749353 68.3125 49.875 C71.91847575 51.25601199 73.0036324 52.4063733 75.125 55.625 C76.94216135 60.59828368 76.9655711 64.17701513 75.0625 69.125 C73.23406789 71.99825046 72.34324343 73.35962828 69.3125 74.875 C67.83647735 75.03284858 66.35634392 75.15419169 64.875 75.25 C61.05215864 75.53294056 60.45468267 75.75096831 57.375 78.4375 C56.694375 79.241875 56.01375 80.04625 55.3125 80.875 C54.6525 80.875 53.9925 80.875 53.3125 80.875 C53.0546875 81.41640625 52.796875 81.9578125 52.53125 82.515625 C51.08783706 85.30992441 49.47811466 87.95719346 47.8125 90.625 C47.2040625 91.60984375 46.595625 92.5946875 45.96875 93.609375 C45.4221875 94.35703125 44.875625 95.1046875 44.3125 95.875 C43.6525 95.875 42.9925 95.875 42.3125 95.875 C41.92771484 96.97328125 41.92771484 96.97328125 41.53515625 98.09375 C40.25464846 101.0065984 38.80175707 102.95434116 36.75 105.375 C31.12444914 112.21410662 26.22220397 119.51044404 21.3125 126.875 C20.6525 126.875 19.9925 126.875 19.3125 126.875 C18.9721875 127.8340625 18.9721875 127.8340625 18.625 128.8125 C16.82684174 133.00820261 14.57345979 136.91400556 12.3125 140.875 C12.951875 141.65875 13.59125 142.4425 14.25 143.25 C16.3125 145.875 16.3125 145.875 17.3125 147.875 C22.10655407 147.25130753 25.89235995 145.25646488 30.125 143.0625 C31.48567708 142.36848958 32.84635417 141.67447917 34.20703125 140.98046875 C34.88572266 140.63097168 35.56441406 140.28147461 36.26367188 139.92138672 C38.27734268 138.8929557 40.30318745 137.89262343 42.33203125 136.89453125 C46.37784949 134.8778084 50.27577783 132.63781329 54.1875 130.375 C59.32968197 127.43372886 64.35872388 124.93089599 69.92578125 122.87890625 C72.70573931 121.70959492 75.17023033 120.24959501 77.75 118.6875 C83.16410283 115.43196105 88.72984444 112.64343473 94.4375 109.9375 C95.27982178 109.53571533 96.12214355 109.13393066 96.98999023 108.7199707 C103.05558907 105.875 103.05558907 105.875 105.3125 105.875 C105.27769531 105.11316406 105.24289062 104.35132813 105.20703125 103.56640625 C104.99358805 95.42507285 105.66201311 88.98782448 110.125 82.0625 C115.76290249 76.42459751 120.50871947 74.92415767 128.3125 74.875 C130.71295502 75.06260217 132.94414893 75.41162696 135.3125 75.875 C135.3125 77.195 135.3125 78.515 135.3125 79.875 C136.529375 79.771875 137.74625 79.66875 139 79.5625 C142.32568222 79.591827 143.19142403 79.7924482 146.0625 81.75 C149.62687822 86.70052531 151.82817631 91.90851741 152.8125 97.9375 C152.07719662 102.25740738 150.25575633 105.97113684 148.3125 109.875 C147.6525 109.875 146.9925 109.875 146.3125 109.875 C146.3125 110.535 146.3125 111.195 146.3125 111.875 C144.51953125 113.53125 144.51953125 113.53125 142.125 115.375 C141.34769531 115.9834375 140.57039063 116.591875 139.76953125 117.21875 C134.1793901 120.98698505 128.92983918 121.85569919 122.3125 120.875 C118.79227912 119.50043756 115.55634241 117.80750186 112.3125 115.875 C112.3125 115.215 112.3125 114.555 112.3125 113.875 C109.70620148 112.50615154 109.70620148 112.50615154 106.3125 111.875 C103.52536089 112.88005016 101.29965926 113.88405775 98.75 115.3125 C98.05326172 115.68141357 97.35652344 116.05032715 96.63867188 116.43041992 C94.51830989 117.55849309 92.41437132 118.71290048 90.3125 119.875 C87.98087499 121.14899942 85.64671935 122.41825121 83.3125 123.6875 C82.343125 124.23019531 81.37375 124.77289063 80.375 125.33203125 C78.05808439 126.49935481 75.92417241 127.41500361 73.5 128.28125 C68.87195109 129.96133275 64.6353075 132.22152106 60.3125 134.5625 C54.21066536 137.82616099 48.08621284 141.01218852 41.875 144.0625 C35.1653475 147.36966296 28.71250107 150.99621147 22.3125 154.875 C22.45357747 156.33380109 22.60052415 157.79203551 22.75 159.25 C22.83121094 160.06210938 22.91242188 160.87421875 22.99609375 161.7109375 C23.20340114 163.91772805 23.20340114 163.91772805 24.3125 165.875 C26.61249582 166.50425456 26.61249582 166.50425456 29.4375 166.875 C30.530625 167.04 31.62375 167.205 32.75 167.375 C33.925625 167.54 35.10125 167.705 36.3125 167.875 C37.4675 168.04 38.6225 168.205 39.8125 168.375 C43.64250886 168.90327708 47.47567062 169.39939017 51.3125 169.875 C52.01681152 169.96281738 52.72112305 170.05063477 53.44677734 170.14111328 C61.58489393 171.14091311 69.68265261 171.94901385 77.875 172.3125 C89.4192451 172.82517068 100.85950651 174.39571299 112.3125 175.875 C112.45558594 175.1015625 112.59867187 174.328125 112.74609375 173.53125 C113.59416282 169.55409848 114.86189984 166.95310784 118.18359375 164.484375 C124.18879652 160.6498602 129.14194744 158.97868093 136.3125 159.875 C142.44425288 163.11441662 146.88594611 167.3233045 149.3125 173.875 C150.09969678 180.31086561 149.29719636 185.15433198 146.3125 190.875 C145.6525 190.875 144.9925 190.875 144.3125 190.875 C144.3125 191.535 144.3125 192.195 144.3125 192.875 C139.26394 197.53520923 133.33582902 198.35239011 126.703125 198.18359375 C120.74932465 197.41504763 117.27318043 192.9897833 113.609375 188.65625 C112.3125 186.875 112.3125 186.875 111.328125 184.71875 C110.39103155 182.52430074 110.39103155 182.52430074 107.3125 181.875 C104.49977861 181.56854384 101.6934992 181.30344148 98.875 181.0625 C89.15631255 180.18438008 79.4566692 179.15705985 69.75802612 178.0831604 C68.13208735 177.90320843 66.50604979 177.7241467 64.87991333 177.54598999 C62.56550372 177.29216372 60.25145884 177.03524354 57.9375 176.77734375 C57.24240829 176.70134949 56.54731659 176.62535522 55.8311615 176.54705811 C53.08746785 176.23786782 50.38730144 175.89025314 47.6809082 175.33837891 C45.03000903 174.81973066 42.49149794 174.66412282 39.79296875 174.55859375 C38.77138672 174.51669922 37.74980469 174.47480469 36.69726562 174.43164062 C35.64216797 174.39232422 34.58707031 174.35300781 33.5 174.3125 C31.88834961 174.24772461 31.88834961 174.24772461 30.24414062 174.18164062 C27.60037918 174.07589017 24.9565289 173.97379767 22.3125 173.875 C22.04477783 174.56352051 21.77705566 175.25204102 21.5012207 175.96142578 C21.14632568 176.8636084 20.79143066 177.76579102 20.42578125 178.6953125 C19.900448 180.03746826 19.900448 180.03746826 19.36450195 181.40673828 C18.3125 183.875 18.3125 183.875 16.5 186.75 C15.11560685 188.77968657 15.11560685 188.77968657 15.4375 191 C16.41961007 193.10452157 17.6469945 194.28190779 19.3125 195.875 C19.3125 196.535 19.3125 197.195 19.3125 197.875 C19.88871094 198.12378906 20.46492187 198.37257813 21.05859375 198.62890625 C23.63406712 200.05278148 25.33261557 201.69928143 27.375 203.8125 C28.04660156 204.50214844 28.71820313 205.19179688 29.41015625 205.90234375 C30.35181641 206.87880859 30.35181641 206.87880859 31.3125 207.875 C31.88871094 208.41253906 32.46492187 208.95007813 33.05859375 209.50390625 C34.3125 210.875 34.3125 210.875 34.3125 212.875 C34.9725 212.875 35.6325 212.875 36.3125 212.875 C37.9375 214.25 37.9375 214.25 39.3125 215.875 C39.3125 216.535 39.3125 217.195 39.3125 217.875 C39.89 218.101875 40.4675 218.32875 41.0625 218.5625 C43.87677613 220.20416107 45.33987733 222.31059053 47.3125 224.875 C47.9725 225.205 48.6325 225.535 49.3125 225.875 C49.3125 226.535 49.3125 227.195 49.3125 227.875 C51.81175331 227.45845778 53.94678606 227.06616865 56.203125 225.88671875 C59.74062737 224.1900278 63.41104356 223.80341364 67.3125 223.875 C69.875 225.1875 69.875 225.1875 71.3125 226.875 C71.3125 227.535 71.3125 228.195 71.3125 228.875 C72.1375 228.545 72.9625 228.215 73.8125 227.875 C78.02457639 227.875 78.61282144 228.60085657 81.5625 231.4375 C84.56054346 234.73362809 86.6264972 237.36698163 87.3125 241.875 C87.125 244.625 87.125 244.625 86.3125 247.875 C86.14878906 248.64070312 85.98507812 249.40640625 85.81640625 250.1953125 C84.18250713 256.83239341 81.33450064 261.24023796 76.3125 265.875 C70.59956306 268.73146847 61.51701217 267.61241587 55.3125 266.875 C49.97206824 264.98675017 47.38346341 261.5316183 44.8125 256.625 C42.31161399 250.02974308 42.51281533 243.97715431 44.9375 237.4375 C45.65987755 235.24480069 45.65987755 235.24480069 45.3125 232.875 C42.2026982 228.30635296 38.32147922 223.37948961 33.3125 220.875 C33.3125 220.215 33.3125 219.555 33.3125 218.875 C32.3225 218.545 31.3325 218.215 30.3125 217.875 C26.3125 213.41785714 26.3125 213.41785714 26.3125 210.875 C25.735 210.61332031 25.1575 210.35164062 24.5625 210.08203125 C18.73698608 206.95688576 14.37002666 201.98447802 10.3125 196.875 C7.49763188 195.58024925 7.49763188 195.58024925 5.515625 196.58203125 C4.54882812 197.12923828 4.54882812 197.12923828 3.5625 197.6875 C-0.14320802 199.67074003 -3.61641866 200.85722966 -7.6875 201.875 C-8.56731295 206.47936933 -8.8929483 210.98892294 -9.00390625 215.6640625 C-9.02473267 216.42492157 -9.04555908 217.18578064 -9.0670166 217.96969604 C-9.13330095 220.47969479 -9.19218748 222.98979269 -9.25 225.5 C-9.28176834 226.79176147 -9.28176834 226.79176147 -9.31417847 228.10961914 C-9.82979978 249.3630759 -9.78659466 270.61690831 -9.6875 291.875 C-8.57600586 292.17825195 -7.46451172 292.48150391 -6.31933594 292.79394531 C-0.54120858 294.51386652 2.92285205 297.74420647 6.1875 302.75 C9.10072422 310.8422895 8.31680898 316.91358121 5.3125 324.875 C2.98081203 328.93386425 -0.01160694 331.27610432 -4.21875 333.21484375 C-11.69823678 335.21489639 -21.89563472 333.63845782 -28.6875 329.875 C-33.13935295 324.96654675 -34.64578843 319.39731037 -34.72265625 312.90625 C-34.40978457 306.7403886 -33.85013578 302.52735763 -29.6875 297.875 C-26.6875 295.875 -26.6875 295.875 -23.6875 295.875 C-23.6875 295.215 -23.6875 294.555 -23.6875 293.875 C-21.3775 293.215 -19.0675 292.555 -16.6875 291.875 C-16.68972061 291.06528244 -16.69194122 290.25556488 -16.69422913 289.42131042 C-16.71446479 281.70125384 -16.72959076 273.98121055 -16.73931217 266.26113415 C-16.7444784 262.29443903 -16.75145861 258.32776625 -16.76293945 254.36108398 C-16.89205237 208.48865712 -16.89205237 208.48865712 -14.6875 201.875 C-15.25597656 201.75382813 -15.82445312 201.63265625 -16.41015625 201.5078125 C-21.22995464 200.46177946 -25.9607934 199.28295516 -30.6875 197.875 C-31.43 199.050625 -31.43 199.050625 -32.1875 200.25 C-33.99297084 202.95510407 -35.94746387 205.47792946 -38 208 C-42.9972776 214.1592155 -47.69729106 220.53820378 -52.4074707 226.91845703 C-53.03097412 227.75747559 -53.65447754 228.59649414 -54.296875 229.4609375 C-55.1317041 230.59088135 -55.1317041 230.59088135 -55.98339844 231.74365234 C-57.6875 233.875 -57.6875 233.875 -59.7800293 235.94165039 C-61.90053459 238.09092486 -63.15910153 240.41938837 -64.59814453 243.05517578 C-66.42360086 246.10469426 -68.77091198 248.66394957 -71.125 251.3125 C-75.12686305 255.943892 -78.89356662 260.38691658 -81.6875 265.875 C-81.41594616 267.88361706 -81.41594616 267.88361706 -80.6875 269.875 C-78.193597 278.31327454 -79.02639367 283.65981859 -83.1796875 291.52734375 C-85.88331424 295.73687658 -88.82528004 298.22449546 -93.75 299.34375 C-100.83118562 299.84954897 -108.07248985 296.97822219 -113.42578125 292.3828125 C-117.46633079 287.78206878 -118.92269186 283.96170886 -118.5625 277.9375 C-117.67095407 271.0203333 -113.93834691 266.92818661 -109.25 262.07421875 C-105.22983345 258.98874093 -99.50618132 259.40335093 -94.6875 259.875 C-91.87720041 260.67396121 -89.37565222 261.70198812 -86.6875 262.875 C-86.41510498 262.29395508 -86.14270996 261.71291016 -85.86206055 261.11425781 C-84.69962338 258.89811279 -83.41294942 257.03278707 -81.89453125 255.046875 C-81.34603516 254.32886719 -80.79753906 253.61085938 -80.23242188 252.87109375 C-79.66072266 252.12988281 -79.08902344 251.38867188 -78.5 250.625 C-77.94763672 249.89925781 -77.39527344 249.17351562 -76.82617188 248.42578125 C-73.98019705 244.71708931 -71.06290422 241.12847673 -67.94921875 237.640625 C-65.47749569 234.85959364 -63.53593055 232.11384291 -61.6875 228.875 C-60.32025782 227.14369925 -58.92217216 225.43646964 -57.5 223.75 C-52.33149475 217.51591007 -47.62738676 210.99475262 -42.92578125 204.40625 C-42.39339844 203.6740625 -41.86101562 202.941875 -41.3125 202.1875 C-40.62027344 201.22263672 -40.62027344 201.22263672 -39.9140625 200.23828125 C-39.50929687 199.78839844 -39.10453125 199.33851563 -38.6875 198.875 C-38.0275 198.875 -37.3675 198.875 -36.6875 198.875 C-35.83099347 196.07454954 -35.83099347 196.07454954 -35.6875 192.875 C-37.50037195 190.47704619 -37.50037195 190.47704619 -39.6875 188.875 C-45.86554177 191.52573548 -51.82761963 194.44753091 -57.75 197.625 C-63.70969402 200.79635239 -69.69105156 203.89784369 -75.75 206.875 C-82.36549254 210.13567722 -88.80219264 213.67377949 -95.22949219 217.28930664 C-100.48257622 220.235417 -105.78343576 222.99929795 -111.20703125 225.62109375 C-113.76427349 226.87058875 -113.76427349 226.87058875 -116.38671875 228.53515625 C-118.6875 229.875 -118.6875 229.875 -120.6875 229.875 C-120.77 230.90625 -120.8525 231.9375 -120.9375 233 C-122.00952902 238.53881658 -124.18199273 241.54455172 -128.375 245.25 C-132.64669554 247.34554875 -136.02080278 247.97494943 -140.6875 246.875 C-144.05884399 244.81578058 -146.90640316 242.43719367 -148.6875 238.875 C-149.36130461 233.25427551 -149.83325543 227.49612506 -146.5625 222.625 C-143.30538355 219.43801285 -140.12935403 219.3424484 -135.6875 219.1875 C-131.26817038 219.25049483 -129.31529614 219.38209519 -125.796875 222.14453125 C-122.98111846 224.14218131 -122.98111846 224.14218131 -120.72851562 223.51977539 C-118.37206866 222.56494351 -116.17535188 221.4571324 -113.9375 220.25 C-112.69383667 219.61989014 -112.69383667 219.61989014 -111.42504883 218.97705078 C-104.14735637 215.24755223 -97.01037043 211.24266247 -89.89453125 207.21484375 C-86.17115979 205.12060557 -82.39810874 203.19338175 -78.5625 201.3125 C-73.41719846 198.78760145 -68.41649443 196.08315733 -63.4375 193.25 C-46.95233586 183.875 -46.95233586 183.875 -43.6875 183.875 C-44.6775 181.565 -45.6675 179.255 -46.6875 176.875 C-47.86183594 177.12894531 -49.03617187 177.38289062 -50.24609375 177.64453125 C-59.59294811 179.64826682 -68.93553331 181.50737512 -78.3671875 183.06640625 C-81.85154526 183.67701049 -85.27141321 184.47942364 -88.7109375 185.3046875 C-96.22722802 187.06572452 -103.81270829 188.26750475 -111.4375 189.4375 C-119.58088992 190.69535073 -127.65160812 192.0360655 -135.6875 193.875 C-138.75 194 -138.75 194 -140.6875 193.875 C-140.7803125 195.2053125 -140.7803125 195.2053125 -140.875 196.5625 C-142.06631115 201.4193839 -144.7228419 203.64007205 -148.875 206.25 C-153.35607483 207.24579441 -157.28470266 207.26499667 -161.6875 205.875 C-165.90868193 202.80988952 -168.84535706 198.98090376 -169.875 193.8125 C-169.6423895 188.9276794 -168.42358874 186.85476544 -165.6875 182.875 C-165.0275 182.875 -164.3675 182.875 -163.6875 182.875 C-163.6875 182.215 -163.6875 181.555 -163.6875 180.875 C-159.13317394 178.5243801 -154.70367484 178.14955672 -149.6875 178.875 C-145.76533525 180.90871506 -142.9723164 183.06697266 -140.6875 186.875 C-140.6875 187.535 -140.6875 188.195 -140.6875 188.875 C-129.1632135 186.95807932 -117.67697713 184.93588137 -106.25 182.5 C-96.5233538 180.43053542 -86.77302245 178.52252048 -77 176.6875 C-76.3305838 176.56103088 -75.6611676 176.43456177 -74.97146606 176.30426025 C-67.03072704 174.80622897 -59.0932049 173.43690635 -51.09057617 172.3112793 C-48.74342342 172.12073113 -48.74342342 172.12073113 -47.6875 170.875 C-47.45322222 168.85905418 -47.27413876 166.836526 -47.125 164.8125 C-47.04121094 163.70777344 -46.95742187 162.60304687 -46.87109375 161.46484375 C-46.81050781 160.61019531 -46.74992187 159.75554687 -46.6875 158.875 C-47.55246094 158.66746094 -48.41742188 158.45992187 -49.30859375 158.24609375 C-64.54641343 154.51852067 -79.64275104 150.25162963 -94.6875 145.8125 C-105.24587762 142.7673256 -115.99319168 140.38923315 -126.6875 137.875 C-126.98551514 138.50132324 -127.28353027 139.12764648 -127.59057617 139.77294922 C-129.8109463 144.02787617 -133.97370221 146.88280128 -138.0625 149.25 C-144.90896252 150.88011012 -151.5027487 150.33118455 -157.6875 146.875 C-161.67110614 144.0171956 -163.46289439 141.92891863 -164.5 137.0625 C-164.5928125 135.4846875 -164.5928125 135.4846875 -164.6875 133.875 C-165.0175 133.545 -165.3475 133.215 -165.6875 132.875 C-165.875 129.4375 -165.875 129.4375 -165.6875 125.875 C-164.6975 124.885 -164.6975 124.885 -163.6875 123.875 C-163.3326046 121.87871336 -163.00171071 119.87809329 -162.6875 117.875 C-161.65154466 113.62758311 -159.60441531 111.31585357 -155.94921875 108.88671875 C-150.43008296 106.41788253 -144.15716624 106.37191984 -138.3125 107.5625 C-132.9934093 110.22204535 -129.08948935 112.95795467 -125.6875 117.875 C-124.640625 121.20703125 -124.640625 121.20703125 -123.9375 124.6875 C-123.69515625 125.84894531 -123.4528125 127.01039063 -123.203125 128.20703125 C-123.03296875 129.08746094 -122.8628125 129.96789062 -122.6875 130.875 C-106.26255942 135.76090005 -89.78650838 140.36849698 -73.18774414 144.62890625 C-66.36919572 146.39312597 -59.61308719 148.313854 -52.91381836 150.49023438 C-48.24917811 152.01901932 -48.24917811 152.01901932 -43.6875 150.875 C-41.91581458 149.1475159 -41.91581458 149.1475159 -40.4375 147 C-39.91671875 146.30132812 -39.3959375 145.60265625 -38.859375 144.8828125 C-37.43546002 142.83063484 -37.43546002 142.83063484 -37.6875 139.875 C-39.10973032 137.8114299 -40.55621294 135.88395272 -42.125 133.9375 C-43.03964798 132.77520008 -43.95369658 131.61242827 -44.8671875 130.44921875 C-45.33479492 129.85802246 -45.80240234 129.26682617 -46.28417969 128.65771484 C-48.47141921 125.87914439 -50.6166657 123.0700656 -52.75 120.25 C-53.48347656 119.28835937 -54.21695313 118.32671875 -54.97265625 117.3359375 C-56.6875 114.875 -56.6875 114.875 -57.6875 111.875 C-58.3475 111.875 -59.0075 111.875 -59.6875 111.875 C-62.03249865 109.29550149 -63.74221687 106.77164591 -65.375 103.6875 C-67.78016865 99.29878588 -71.18636106 95.8718635 -74.60546875 92.25390625 C-76.38057376 90.22569058 -77.39236348 88.65271922 -78.5 86.25 C-80.44429337 83.60221672 -80.44429337 83.60221672 -83.2734375 83.65625 C-85.37444295 83.71975646 -87.47488266 83.80506128 -89.57421875 83.91015625 C-95.48934607 83.84336058 -99.94057883 81.57712832 -104.125 77.5 C-107.26594653 72.22320983 -108.60853745 67.01141199 -107.6875 60.875 C-105.77168233 54.98603773 -102.76483398 51.3275871 -97.6875 47.875 C-91.68514114 45.19309498 -86.27603793 45.05230318 -80.125 47.3125 C-74.86499657 49.89746744 -71.83733538 53.43575485 -69.6875 58.875 C-68.57001205 65.03737923 -68.71975384 70.06689266 -72.3125 75.3125 C-72.79976563 75.88871094 -73.28703125 76.46492188 -73.7890625 77.05859375 C-74.95702006 78.92269619 -74.95702006 78.92269619 -74.0625 81.3046875 C-72.6211534 83.9990229 -71.00579014 86.2073603 -69.0625 88.5625 C-65.6875 92.66071429 -65.6875 92.66071429 -65.6875 94.875 C-64.2025 95.37 -64.2025 95.37 -62.6875 95.875 C-61.63786746 97.51086348 -60.64340524 99.18265756 -59.6875 100.875 C-58.54725872 102.35408656 -57.3786205 103.81157059 -56.1875 105.25 C-52.7290864 109.50797344 -49.46615568 113.87172903 -46.25 118.3125 C-41.61777691 124.69806761 -36.77023739 130.83846498 -31.6875 136.875 C-30.71167969 136.5140625 -29.73585937 136.153125 -28.73046875 135.78125 C-27.44540431 135.31224838 -26.16024296 134.84351221 -24.875 134.375 C-24.23240234 134.13652344 -23.58980469 133.89804688 -22.92773438 133.65234375 C-20.03816261 132.60431254 -17.78673939 131.875 -14.6875 131.875 C-14.68972061 131.00264206 -14.69194122 130.13028412 -14.69422913 129.23149109 C-14.71444708 120.92278994 -14.72958208 112.61409731 -14.73931217 104.30537701 C-14.74448298 100.03601196 -14.75147214 95.7666676 -14.76293945 91.49731445 C-14.85803406 55.17904007 -14.85803406 55.17904007 -13.6875 39.875 C-14.46472412 39.73400879 -15.24194824 39.59301758 -16.04272461 39.44775391 C-21.88314156 38.18295023 -26.44282933 34.33217542 -30.25 29.875 C-32.91925845 24.37657361 -32.38994149 17.78544203 -31.6875 11.875 C-29.60645269 7.40460207 -26.85672119 4.51889637 -22.6875 1.875 C-21.02128384 1.83625079 -19.35355828 1.8299714 -17.6875 1.875 C-17.0275 0.885 -16.3675 -0.105 -15.6875 -1.125 C-10.36738833 -2.89837056 -5.26740648 -1.60700537 0 0 Z M-16.125 12.5625 C-17.99970873 15.33706892 -18.18034614 16.58935907 -17.6875 19.875 C-16.45907178 23.18230675 -15.74756595 23.83495603 -12.6875 25.875 C-8.88771509 25.58270885 -6.43142912 24.52093165 -3.6875 21.875 C-2.43573501 19.19264645 -2.61773346 18.1003996 -3.5 15.25 C-4.58538478 12.76629671 -4.58538478 12.76629671 -6.6875 10.875 C-10.6171507 10.43837214 -12.82442366 10.27748561 -16.125 12.5625 Z M3.3125 16.875 C4.3125 20.875 4.3125 20.875 4.3125 20.875 Z M-24.6875 22.875 C-23.6875 25.875 -23.6875 25.875 -23.6875 25.875 Z M-90.6875 57.875 C-90.6875 58.535 -90.6875 59.195 -90.6875 59.875 C-91.6775 60.205 -92.6675 60.535 -93.6875 60.875 C-94.68773253 64.05755804 -94.84524716 65.48939583 -93.5625 68.625 C-91.85547491 71.00879043 -91.85547491 71.00879043 -89.3125 71.9375 C-86.53397339 72.07476522 -86.53397339 72.07476522 -83.875 70.3125 C-81.43002902 68.02882116 -81.43002902 68.02882116 -81.1875 64.8125 C-81.4852583 61.94645097 -81.4852583 61.94645097 -82.8125 60.0625 C-85.35426215 58.45271731 -87.7273108 58.20390991 -90.6875 57.875 Z M61.3125 57.875 C60.6525 59.195 59.9925 60.515 59.3125 61.875 C60.3025 63.36 60.3025 63.36 61.3125 64.875 C63.89630177 65.12530977 63.89630177 65.12530977 66.3125 64.875 C66.9725 63.555 67.6325 62.235 68.3125 60.875 C67.0636573 59.2916747 67.0636573 59.2916747 65.3125 57.875 C63.9925 57.875 62.6725 57.875 61.3125 57.875 Z M115.3125 85.875 C111.8722883 89.65923287 110.1017775 92.78854498 109.3125 97.875 C110.02608381 100.47123046 111.03752607 102.47216452 112.3125 104.875 C113.55799946 102.38400109 113.31210671 100.83292263 113.1875 98.0625 C113.11885192 93.73767075 113.74535412 91.44668122 116.3125 87.875 C115.9825 87.215 115.6525 86.555 115.3125 85.875 Z M123.3125 89.875 C120.97081236 93.38753146 120.81626323 94.73969356 121.3125 98.875 C122.65365399 101.88479883 122.65365399 101.88479883 125.3125 103.875 C129.42425696 104.60359931 129.42425696 104.60359931 133.3125 103.875 C135.8564568 102.07153767 136.67266919 100.67858171 138.3125 97.875 C138.39556055 94.46951742 137.38977497 92.99643209 135.5625 90.125 C131.22156802 85.78406802 128.04103665 86.29664794 123.3125 89.875 Z M121.3125 111.875 C122.43359566 113.49993901 122.43359566 113.49993901 124.3125 114.875 C127.43799017 115.12548636 127.43799017 115.12548636 130.3125 114.875 C127.55026722 112.11276722 125.10543383 112.29643709 121.3125 111.875 Z M134.3125 111.875 C133.3225 112.535 132.3325 113.195 131.3125 113.875 C132.9625 113.545 134.6125 113.215 136.3125 112.875 C135.6525 112.545 134.9925 112.215 134.3125 111.875 Z M-151.625 121.9375 C-153.86722833 124.71521287 -153.86722833 124.71521287 -154.3125 127.9375 C-153.92464651 131.04222117 -153.92464651 131.04222117 -151.4375 133.1875 C-148.26649562 135.28876231 -148.26649562 135.28876231 -144.6875 135.875 C-141.4272827 133.93439446 -139.90888492 132.29120366 -138.125 128.9375 C-137.37839713 125.81296955 -137.37839713 125.81296955 -139.125 123.0625 C-143.42732883 119.38978027 -146.89748106 118.61817819 -151.625 121.9375 Z M-159.6875 125.875 C-158.6875 129.875 -158.6875 129.875 -158.6875 129.875 Z M-31.6875 143.875 C-33.69929147 146.42053163 -33.69929147 146.42053163 -35.375 149.3125 C-35.95636719 150.25996094 -36.53773438 151.20742187 -37.13671875 152.18359375 C-37.64847656 153.07175781 -38.16023437 153.95992187 -38.6875 154.875 C-39.07550781 155.50535156 -39.46351563 156.13570312 -39.86328125 156.78515625 C-42.36149243 163.11948318 -41.65406677 171.24784903 -39.34375 177.52734375 C-37.8983396 180.39430164 -36.3900515 183.15395786 -34.6875 185.875 C-34.0275 185.875 -33.3675 185.875 -32.6875 185.875 C-32.3575 186.865 -32.0275 187.855 -31.6875 188.875 C-29.93373072 190.29193801 -29.93373072 190.29193801 -27.8125 191.5 C-27.11382812 191.92539062 -26.41515625 192.35078125 -25.6953125 192.7890625 C-19.30161576 196.24713194 -10.77107571 195.7649541 -3.6875 194.875 C3.74776319 192.50446315 10.2560061 187.6042858 14.3125 180.875 C17.29002155 172.42365095 18.11753602 162.17733389 14.625 153.75 C10.76882006 146.58661018 3.75706616 140.96373356 -3.8359375 138.05078125 C-13.78170746 135.36428017 -23.33712649 137.9260411 -31.6875 143.875 Z M126.3125 165.875 C125.9825 166.535 125.6525 167.195 125.3125 167.875 C129.7675 167.38 129.7675 167.38 134.3125 166.875 C134.3125 166.545 134.3125 166.215 134.3125 165.875 C131.6725 165.875 129.0325 165.875 126.3125 165.875 Z M118.3125 172.875 C119.3125 174.875 119.3125 174.875 119.3125 174.875 Z M126.3125 173.875 C124.14698884 177.12326674 123.76093047 178.10594157 124.3125 181.875 C126.27708749 184.56721249 127.48695006 185.68448847 130.75 186.4375 C134.50101166 185.6141072 135.98782674 183.86386562 138.3125 180.875 C139.14675785 178.28674293 139.14675785 178.28674293 138.3125 175.875 C134.27948693 172.62618392 131.27114738 172.22211754 126.3125 173.875 Z M117.3125 174.875 C116.9825 175.205 116.6525 175.535 116.3125 175.875 C116.4143371 177.78924457 116.4143371 177.78924457 116.75 179.9375 C116.935625 181.236875 117.12125 182.53625 117.3125 183.875 C117.6425 183.875 117.9725 183.875 118.3125 183.875 C118.3125 180.905 118.3125 177.935 118.3125 174.875 C117.9825 174.875 117.6525 174.875 117.3125 174.875 Z M118.3125 184.875 C119.3125 186.875 119.3125 186.875 119.3125 186.875 Z M-156.6875 187.875 C-158.46159808 189.79522703 -158.46159808 189.79522703 -159.6875 191.875 C-158.53065671 193.9745533 -158.53065671 193.9745533 -156.6875 195.875 C-154.06124861 196.20925735 -154.06124861 196.20925735 -151.6875 195.875 C-151.0275 194.225 -150.3675 192.575 -149.6875 190.875 C-150.9363427 189.2916747 -150.9363427 189.2916747 -152.6875 187.875 C-154.0075 187.875 -155.3275 187.875 -156.6875 187.875 Z M-137.6875 228.875 C-139.1725 231.35 -139.1725 231.35 -140.6875 233.875 C-137.7175 235.855 -137.7175 235.855 -134.6875 237.875 C-133.3675 236.885 -132.0475 235.895 -130.6875 234.875 C-131.0175 233.225 -131.3475 231.575 -131.6875 229.875 C-134.6575 229.38 -134.6575 229.38 -137.6875 228.875 Z M62.3125 231.875 C62.3125 232.205 62.3125 232.535 62.3125 232.875 C65.2825 232.875 68.2525 232.875 71.3125 232.875 C71.3125 232.545 71.3125 232.215 71.3125 231.875 C68.3425 231.875 65.3725 231.875 62.3125 231.875 Z M61.125 238.4375 C58.76670153 241.60900484 58.45495154 243.95758254 58.3125 247.875 C59.3025 249.36 59.3025 249.36 60.3125 250.875 C60.9725 250.875 61.6325 250.875 62.3125 250.875 C62.3125 251.535 62.3125 252.195 62.3125 252.875 C65.58610453 253.10339101 68.05562859 252.95876242 71.1875 251.9375 C73.65372213 249.54381382 73.76439225 248.76888405 74 245.4375 C73.79253016 241.57730353 73.55277562 241.09889319 70.5625 238.3125 C66.80879521 236.6522075 64.60127561 235.95444599 61.125 238.4375 Z M78.3125 240.875 C79.3125 243.875 79.3125 243.875 79.3125 243.875 Z M79.3125 243.875 C80.3125 246.875 80.3125 246.875 80.3125 246.875 Z M49.3125 248.875 C50.3125 250.875 50.3125 250.875 50.3125 250.875 Z M51.3125 252.875 C52.3125 254.875 52.3125 254.875 52.3125 254.875 Z M58.3125 259.875 C62.84469967 262.14109984 64.49022925 261.80235976 69.3125 260.875 C69.3125 260.545 69.3125 260.215 69.3125 259.875 C65.6825 259.875 62.0525 259.875 58.3125 259.875 Z M-104.6875 275.875 C-105.58342083 279.47419423 -105.58342083 279.47419423 -105.6875 282.875 C-105.0275 282.875 -104.3675 282.875 -103.6875 282.875 C-103.6875 283.535 -103.6875 284.195 -103.6875 284.875 C-99.07242226 285.91714691 -99.07242226 285.91714691 -94.6875 284.875 C-94.6875 284.215 -94.6875 283.555 -94.6875 282.875 C-94.0275 282.875 -93.3675 282.875 -92.6875 282.875 C-91.77577302 279.89116624 -91.39012532 278.46974935 -92.8125 275.625 C-96.88325955 271.82562442 -100.6238405 272.26285822 -104.6875 275.875 Z M-18.625 306.9375 C-20.85897653 309.70735609 -20.85897653 309.70735609 -21.3125 312.875 C-20.45564736 316.98789267 -19.11014067 318.47186932 -15.6875 320.875 C-12.14388757 320.875 -9.82158409 320.53350044 -6.75 318.75 C-5.08249831 315.80734995 -5.44719989 313.17912652 -5.6875 309.875 C-6.0175 309.215 -6.3475 308.555 -6.6875 307.875 C-7.3475 307.875 -8.0075 307.875 -8.6875 307.875 C-8.6875 307.215 -8.6875 306.555 -8.6875 305.875 C-13.94920314 304.52322913 -13.94920314 304.52322913 -18.625 306.9375 Z M-27.6875 305.875 C-28.97362676 306.93478933 -28.97362676 306.93478933 -28.78515625 309.37890625 C-28.77355469 310.38824219 -28.76195312 311.39757812 -28.75 312.4375 C-28.74097656 313.44941406 -28.73195312 314.46132813 -28.72265625 315.50390625 C-28.71105469 316.28636719 -28.69945312 317.06882812 -28.6875 317.875 C-28.3575 317.875 -28.0275 317.875 -27.6875 317.875 C-27.3575 313.915 -27.0275 309.955 -26.6875 305.875 C-27.0175 305.875 -27.3475 305.875 -27.6875 305.875 Z M0.3125 306.875 C1.3125 308.875 1.3125 308.875 1.3125 308.875 Z M1.3125 308.875 C1.3125 310.855 1.3125 312.835 1.3125 314.875 C1.6425 314.875 1.9725 314.875 2.3125 314.875 C2.3125 312.895 2.3125 310.915 2.3125 308.875 C1.9825 308.875 1.6525 308.875 1.3125 308.875 Z " fill="#535353" transform="translate(258.6875,84.125)"/>
<path d="M0 0 C5.29340519 2.99626709 8.97912031 6.83526183 10.75 12.75 C12.06495079 19.8452553 11.07078621 26.02991782 6.9765625 32.015625 C3.27848644 36.14774755 -1.44837865 39.12862622 -6.6875 40.875 C-7.51908257 60.38174353 -7.95041816 79.87594773 -8.21972656 99.39691162 C-8.27120094 103.07909376 -8.32620929 106.76122325 -8.38085938 110.44335938 C-8.48639737 117.58719355 -8.58823909 124.7310756 -8.6875 131.875 C-7.58277344 132.01808594 -6.47804687 132.16117188 -5.33984375 132.30859375 C-2.23552527 132.79001212 -0.32955102 133.28976939 2.3125 134.875 C2.3125 135.535 2.3125 136.195 2.3125 136.875 C-0.40151294 138.23200647 -2.53596316 137.9873861 -5.5703125 137.97265625 C-6.73691406 137.96943359 -7.90351563 137.96621094 -9.10546875 137.96289062 C-10.32878906 137.95451172 -11.55210937 137.94613281 -12.8125 137.9375 C-14.04355469 137.93298828 -15.27460938 137.92847656 -16.54296875 137.92382812 C-19.59119392 137.9120133 -22.63932314 137.89554028 -25.6875 137.875 C-24.125 135.4375 -24.125 135.4375 -21.6875 132.875 C-18.03515625 132.21484375 -18.03515625 132.21484375 -14.6875 131.875 C-14.68972061 131.00264206 -14.69194122 130.13028412 -14.69422913 129.23149109 C-14.71444708 120.92278994 -14.72958208 112.61409731 -14.73931217 104.30537701 C-14.74448298 100.03601196 -14.75147214 95.7666676 -14.76293945 91.49731445 C-14.85803406 55.17904007 -14.85803406 55.17904007 -13.6875 39.875 C-14.46472412 39.73400879 -15.24194824 39.59301758 -16.04272461 39.44775391 C-21.88314156 38.18295023 -26.44282933 34.33217542 -30.25 29.875 C-32.91925845 24.37657361 -32.38994149 17.78544203 -31.6875 11.875 C-29.60645269 7.40460207 -26.85672119 4.51889637 -22.6875 1.875 C-21.02128384 1.83625079 -19.35355828 1.8299714 -17.6875 1.875 C-17.0275 0.885 -16.3675 -0.105 -15.6875 -1.125 C-10.36738833 -2.89837056 -5.26740648 -1.60700537 0 0 Z M-16.125 12.5625 C-17.99970873 15.33706892 -18.18034614 16.58935907 -17.6875 19.875 C-16.45907178 23.18230675 -15.74756595 23.83495603 -12.6875 25.875 C-8.88771509 25.58270885 -6.43142912 24.52093165 -3.6875 21.875 C-2.43573501 19.19264645 -2.61773346 18.1003996 -3.5 15.25 C-4.58538478 12.76629671 -4.58538478 12.76629671 -6.6875 10.875 C-10.6171507 10.43837214 -12.82442366 10.27748561 -16.125 12.5625 Z M3.3125 16.875 C4.3125 20.875 4.3125 20.875 4.3125 20.875 Z M-24.6875 22.875 C-23.6875 25.875 -23.6875 25.875 -23.6875 25.875 Z " fill="#464646" transform="translate(258.6875,84.125)"/>
<path d="M0 0 C1.60294922 0.15275391 1.60294922 0.15275391 3.23828125 0.30859375 C4.45064453 0.43427734 4.45064453 0.43427734 5.6875 0.5625 C5.6875 1.8825 5.6875 3.2025 5.6875 4.5625 C6.904375 4.459375 8.12125 4.35625 9.375 4.25 C12.70068222 4.279327 13.56642403 4.4799482 16.4375 6.4375 C20.00187822 11.38802531 22.20317631 16.59601741 23.1875 22.625 C22.45219662 26.94490738 20.63075633 30.65863684 18.6875 34.5625 C18.0275 34.5625 17.3675 34.5625 16.6875 34.5625 C16.6875 35.2225 16.6875 35.8825 16.6875 36.5625 C14.89453125 38.21875 14.89453125 38.21875 12.5 40.0625 C11.72269531 40.6709375 10.94539063 41.279375 10.14453125 41.90625 C4.5543901 45.67448505 -0.69516082 46.54319919 -7.3125 45.5625 C-10.83272088 44.18793756 -14.06865759 42.49500186 -17.3125 40.5625 C-17.3125 39.9025 -17.3125 39.2425 -17.3125 38.5625 C-19.73304414 37.02263571 -19.73304414 37.02263571 -23.3125 36.5625 C-27.15440028 37.87237163 -30.68829168 39.74780342 -34.3125 41.5625 C-35.65687346 42.10811409 -37.01035045 42.63228677 -38.375 43.125 C-43.06703654 44.82232715 -47.68611258 46.69488049 -52.3125 48.5625 C-49.1935346 40.90685765 -42.71297729 37.960154 -35.625 34.75 C-34.3246582 34.13995117 -34.3246582 34.13995117 -32.99804688 33.51757812 C-26.61607143 30.5625 -26.61607143 30.5625 -24.3125 30.5625 C-24.36470703 29.41974609 -24.36470703 29.41974609 -24.41796875 28.25390625 C-24.63141195 20.11257285 -23.96298689 13.67532448 -19.5 6.75 C-13.40905596 0.65905596 -8.39205715 -0.82998367 0 0 Z M-14.3125 10.5625 C-17.7527117 14.34673287 -19.5232225 17.47604498 -20.3125 22.5625 C-19.59891619 25.15873046 -18.58747393 27.15966452 -17.3125 29.5625 C-16.06700054 27.07150109 -16.31289329 25.52042263 -16.4375 22.75 C-16.50614808 18.42517075 -15.87964588 16.13418122 -13.3125 12.5625 C-13.6425 11.9025 -13.9725 11.2425 -14.3125 10.5625 Z M-6.3125 14.5625 C-8.65418764 18.07503146 -8.80873677 19.42719356 -8.3125 23.5625 C-6.97134601 26.57229883 -6.97134601 26.57229883 -4.3125 28.5625 C-0.20074304 29.29109931 -0.20074304 29.29109931 3.6875 28.5625 C6.2314568 26.75903767 7.04766919 25.36608171 8.6875 22.5625 C8.77056055 19.15701742 7.76477497 17.68393209 5.9375 14.8125 C1.59656802 10.47156802 -1.58396335 10.98414794 -6.3125 14.5625 Z M-8.3125 36.5625 C-7.19140434 38.18743901 -7.19140434 38.18743901 -5.3125 39.5625 C-2.18700983 39.81298636 -2.18700983 39.81298636 0.6875 39.5625 C-2.07473278 36.80026722 -4.51956617 36.98393709 -8.3125 36.5625 Z M4.6875 36.5625 C3.6975 37.2225 2.7075 37.8825 1.6875 38.5625 C3.3375 38.2325 4.9875 37.9025 6.6875 37.5625 C6.0275 37.2325 5.3675 36.9025 4.6875 36.5625 Z " fill="#363636" transform="translate(388.3125,159.4375)"/>
<path d="M0 0 C3.87583926 3.90326265 5.20407105 6.99092615 6.34375 12.41796875 C6.59511719 13.5884375 6.84648437 14.75890625 7.10546875 15.96484375 C7.28722656 16.856875 7.46898437 17.74890625 7.65625 18.66796875 C8.81382812 18.99410156 9.97140625 19.32023437 11.1640625 19.65625 C12.70321334 20.09734811 14.24227095 20.53877164 15.78125 20.98046875 C16.54179687 21.19380859 17.30234375 21.40714844 18.0859375 21.62695312 C22.52200527 22.9080589 26.6776879 24.25728237 30.65625 26.66796875 C30.98625 27.65796875 31.31625 28.64796875 31.65625 29.66796875 C24.7449745 33.1236065 10.88191338 27.4418632 3.65625 25.66796875 C3.39457031 26.26351562 3.13289063 26.8590625 2.86328125 27.47265625 C0.51299206 31.74729226 -3.55019969 34.62959752 -7.71875 37.04296875 C-14.56521252 38.67307887 -21.1589987 38.1241533 -27.34375 34.66796875 C-31.32735614 31.81016435 -33.11914439 29.72188738 -34.15625 24.85546875 C-34.218125 23.80359375 -34.28 22.75171875 -34.34375 21.66796875 C-34.67375 21.33796875 -35.00375 21.00796875 -35.34375 20.66796875 C-35.53125 17.23046875 -35.53125 17.23046875 -35.34375 13.66796875 C-34.68375 13.00796875 -34.02375 12.34796875 -33.34375 11.66796875 C-32.9888546 9.67168211 -32.65796071 7.67106204 -32.34375 5.66796875 C-31.23161994 1.10823549 -28.99409693 -0.84369042 -25.1875 -3.32421875 C-17.10258918 -7.74351322 -6.78920453 -5.59534017 0 0 Z M-21.28125 9.73046875 C-23.52347833 12.50818162 -23.52347833 12.50818162 -23.96875 15.73046875 C-23.58089651 18.83518992 -23.58089651 18.83518992 -21.09375 20.98046875 C-17.92274562 23.08173106 -17.92274562 23.08173106 -14.34375 23.66796875 C-11.0835327 21.72736321 -9.56513492 20.08417241 -7.78125 16.73046875 C-7.03464713 13.6059383 -7.03464713 13.6059383 -8.78125 10.85546875 C-13.08357883 7.18274902 -16.55373106 6.41114694 -21.28125 9.73046875 Z M-29.34375 13.66796875 C-28.34375 17.66796875 -28.34375 17.66796875 -28.34375 17.66796875 Z " fill="#393939" transform="translate(128.34375,196.33203125)"/>
<path d="M0 0 C6.13175288 3.23941662 10.57344611 7.4483045 13 14 C13.78719678 20.43586561 12.98469636 25.27933198 10 31 C9.34 31 8.68 31 8 31 C8 31.66 8 32.32 8 33 C2.95144 37.66020923 -2.97667098 38.47739011 -9.609375 38.30859375 C-15.56317535 37.54004763 -19.03931957 33.1147833 -22.703125 28.78125 C-24 27 -24 27 -24.984375 24.84375 C-25.92146845 22.64930074 -25.92146845 22.64930074 -29 22 C-30.51928414 21.79896447 -32.04388322 21.63657686 -33.5703125 21.5 C-34.4675 21.4175 -35.3646875 21.335 -36.2890625 21.25 C-37.22492188 21.1675 -38.16078125 21.085 -39.125 21 C-50.02032687 20.0151117 -50.02032687 20.0151117 -54.953125 19.5 C-55.64825195 19.4278125 -56.34337891 19.355625 -57.05957031 19.28125 C-60.12503024 18.83693573 -63.03478816 17.87858129 -66 17 C-67.258125 16.855625 -68.51625 16.71125 -69.8125 16.5625 C-70.864375 16.376875 -71.91625 16.19125 -73 16 C-73.66 15.01 -74.32 14.02 -75 13 C-57.73788474 12.58703074 -41.08728663 13.50007013 -24 16 C-23.85691406 15.2265625 -23.71382813 14.453125 -23.56640625 13.65625 C-22.71833718 9.67909848 -21.45060016 7.07810784 -18.12890625 4.609375 C-12.12370348 0.7748602 -7.17055256 -0.89631907 0 0 Z M-10 6 C-10.33 6.66 -10.66 7.32 -11 8 C-6.545 7.505 -6.545 7.505 -2 7 C-2 6.67 -2 6.34 -2 6 C-4.64 6 -7.28 6 -10 6 Z M-18 13 C-17 15 -17 15 -17 15 Z M-10 14 C-12.16551116 17.24826674 -12.55156953 18.23094157 -12 22 C-10.03541251 24.69221249 -8.82554994 25.80948847 -5.5625 26.5625 C-1.81148834 25.7391072 -0.32467326 23.98886562 2 21 C2.83425785 18.41174293 2.83425785 18.41174293 2 16 C-2.03301307 12.75118392 -5.04135262 12.34711754 -10 14 Z M-19 15 C-19.33 15.33 -19.66 15.66 -20 16 C-19.8981629 17.91424457 -19.8981629 17.91424457 -19.5625 20.0625 C-19.376875 21.361875 -19.19125 22.66125 -19 24 C-18.67 24 -18.34 24 -18 24 C-18 21.03 -18 18.06 -18 15 C-18.33 15 -18.66 15 -19 15 Z M-18 25 C-17 27 -17 27 -17 27 Z " fill="#444444" transform="translate(395,244)"/>
<path d="M0 0 C4.04284437 2.70255357 6.37678052 5.93921467 8.15625 10.44140625 C9.27373795 16.60378548 9.12399616 21.63329891 5.53125 26.87890625 C5.04398438 27.45511719 4.55671875 28.03132813 4.0546875 28.625 C2.88672994 30.48910244 2.88672994 30.48910244 3.78125 32.87109375 C5.2225966 35.56542915 6.83795986 37.77376655 8.78125 40.12890625 C12.15625 44.22712054 12.15625 44.22712054 12.15625 46.44140625 C13.14625 46.77140625 14.13625 47.10140625 15.15625 47.44140625 C16.20269066 49.07931337 17.1960683 50.75148646 18.15625 52.44140625 C18.89875 53.28703125 19.64125 54.13265625 20.40625 55.00390625 C22.15625 57.44140625 22.15625 57.44140625 21.90625 59.75390625 C21.65875 60.31078125 21.41125 60.86765625 21.15625 61.44140625 C17.88634489 61.15437499 16.51097701 60.83285448 14.26953125 58.359375 C13.67527344 57.45832031 13.08101562 56.55726563 12.46875 55.62890625 C8.65843557 50.07340964 4.52180729 44.99577809 0.16015625 39.875 C-1.84375 37.44140625 -1.84375 37.44140625 -2.84375 35.44140625 C-3.60558594 35.4878125 -4.36742187 35.53421875 -5.15234375 35.58203125 C-12.24809291 35.83007242 -17.80142967 35.37981886 -23.84375 31.44140625 C-28.3014046 27.09805049 -29.62792989 22.67154742 -30.21875 16.56640625 C-30.05572548 11.23754222 -28.00822481 6.8430005 -24.453125 2.8984375 C-17.19255316 -3.61697039 -8.55678337 -4.20513155 0 0 Z M-12.84375 9.44140625 C-12.84375 10.10140625 -12.84375 10.76140625 -12.84375 11.44140625 C-13.83375 11.77140625 -14.82375 12.10140625 -15.84375 12.44140625 C-16.84398253 15.62396429 -17.00149716 17.05580208 -15.71875 20.19140625 C-14.01172491 22.57519668 -14.01172491 22.57519668 -11.46875 23.50390625 C-8.69022339 23.64117147 -8.69022339 23.64117147 -6.03125 21.87890625 C-3.58627902 19.59522741 -3.58627902 19.59522741 -3.34375 16.37890625 C-3.6415083 13.51285722 -3.6415083 13.51285722 -4.96875 11.62890625 C-7.51051215 10.01912356 -9.8835608 9.77031616 -12.84375 9.44140625 Z " fill="#484848" transform="translate(180.84375,132.55859375)"/>
<path d="M0 0 C3.92216475 2.03371506 6.7151836 4.19197266 9 8 C9 8.66 9 9.32 9 10 C12.33468045 9.44531769 15.66763385 8.88091838 19 8.3125 C20.02641602 8.13750977 21.05283203 7.96251953 22.11035156 7.78222656 C30.68348865 6.29135932 39.18635254 4.53789862 47.6640625 2.57543945 C54.19778614 1.13374437 60.31602248 0.73705577 67 1 C65 4 65 4 63.0546875 4.51171875 C62.33539063 4.56972656 61.61609375 4.62773437 60.875 4.6875 C59.59625 4.790625 58.3175 4.89375 57 5 C57 5.66 57 6.32 57 7 C50.00222218 8.3451761 43.00205414 9.67726648 36 11 C34.47874512 11.28810547 34.47874512 11.28810547 32.92675781 11.58203125 C29.95210916 12.14317768 26.97627592 12.69755667 24 13.25 C22.61337158 13.51248535 22.61337158 13.51248535 21.19873047 13.78027344 C20.32877441 13.94043945 19.45881836 14.10060547 18.5625 14.265625 C17.80066406 14.40774414 17.03882813 14.54986328 16.25390625 14.69628906 C13.81196164 15.02533792 11.46110341 15.0510017 9 15 C8.9071875 16.3303125 8.9071875 16.3303125 8.8125 17.6875 C7.62118885 22.5443839 4.9646581 24.76507205 0.8125 27.375 C-3.66857483 28.37079441 -7.59720266 28.38999667 -12 27 C-16.22118193 23.93488952 -19.15785706 20.10590376 -20.1875 14.9375 C-19.9548895 10.0526794 -18.73608874 7.97976544 -16 4 C-15.34 4 -14.68 4 -14 4 C-14 3.34 -14 2.68 -14 2 C-9.44567394 -0.3506199 -5.01617484 -0.72544328 0 0 Z M-7 9 C-8.77409808 10.92022703 -8.77409808 10.92022703 -10 13 C-8.84315671 15.0995533 -8.84315671 15.0995533 -7 17 C-4.37374861 17.33425735 -4.37374861 17.33425735 -2 17 C-1.34 15.35 -0.68 13.7 0 12 C-1.2488427 10.4166747 -1.2488427 10.4166747 -3 9 C-4.32 9 -5.64 9 -7 9 Z " fill="#494949" transform="translate(109,263)"/>
<path d="M0 0 C2.61742894 1.07159547 3.92002068 2.0423724 6 4 C6.51949219 3.71125 7.03898437 3.4225 7.57421875 3.125 C14.50087873 -0.56239016 14.50087873 -0.56239016 19 0 C18.37988211 3.03168747 17.86905244 5.30894625 15.37890625 7.2890625 C10.68839928 10 10.68839928 10 8 10 C7.9175 11.03125 7.835 12.0625 7.75 13.125 C6.67797098 18.66381658 4.50550727 21.66955172 0.3125 25.375 C-3.95919554 27.47054875 -7.33330278 28.09994943 -12 27 C-15.37134399 24.94078058 -18.21890316 22.56219367 -20 19 C-20.67380461 13.37927551 -21.14575543 7.62112506 -17.875 2.75 C-13.12179876 -1.90085959 -6.1107759 -0.94623126 0 0 Z M-9 9 C-10.485 11.475 -10.485 11.475 -12 14 C-9.03 15.98 -9.03 15.98 -6 18 C-4.68 17.01 -3.36 16.02 -2 15 C-2.33 13.35 -2.66 11.7 -3 10 C-5.97 9.505 -5.97 9.505 -9 9 Z " fill="#474747" transform="translate(130,304)"/>
<path d="M0 0 C3.66008184 3.32734712 4.91464398 6.49501052 5.4375 11.375 C4.93703086 16.04604535 3.57486774 19.18812829 0.4375 22.6875 C-2.07975973 23.94612987 -3.60106769 24.07059144 -6.375 24.25 C-11.13748391 24.5929612 -12.67008443 26.42606134 -15.9375 29.875 C-18.75 29.6875 -18.75 29.6875 -20.9375 28.875 C-20.39026317 25.50037285 -19.8826 23.79265 -17.9375 20.875 C-18.4325 20.235625 -18.9275 19.59625 -19.4375 18.9375 C-21.41757513 14.89484662 -21.54868896 11.31207311 -20.9375 6.875 C-19.91796875 4.59765625 -19.91796875 4.59765625 -18.9375 2.875 C-18.2775 2.875 -17.6175 2.875 -16.9375 2.875 C-16.9375 2.215 -16.9375 1.555 -16.9375 0.875 C-11.66484042 -2.18143777 -5.6347431 -2.15798672 0 0 Z M-9.9375 6.875 C-10.5975 8.195 -11.2575 9.515 -11.9375 10.875 C-10.9475 12.36 -10.9475 12.36 -9.9375 13.875 C-7.35369823 14.12530977 -7.35369823 14.12530977 -4.9375 13.875 C-4.2775 12.555 -3.6175 11.235 -2.9375 9.875 C-4.1863427 8.2916747 -4.1863427 8.2916747 -5.9375 6.875 C-7.2575 6.875 -8.5775 6.875 -9.9375 6.875 Z " fill="#393939" transform="translate(329.9375,135.125)"/>
<path d="M0 0 C3.125 1.375 3.125 1.375 5 3 C5 3.66 5 4.32 5 5 C5.66 5 6.32 5 7 5 C8.19114233 8.72231978 8.33502383 12.11372361 8 16 C6 19.4375 6 19.4375 4 22 C5.98 20.68 7.96 19.36 10 18 C10.625 19.8125 10.625 19.8125 11 22 C10.34 22.99 9.68 23.98 9 25 C8.34 25 7.68 25 7 25 C6.896875 25.61875 6.79375 26.2375 6.6875 26.875 C6 29 6 29 3 31 C-1.58628372 31.73861498 -5.04004727 31.56813529 -9.0625 29.1875 C-11 27 -11 27 -11 24 C-10.01 24 -9.02 24 -8 24 C-8.99 23.34 -9.98 22.68 -11 22 C-11 21.34 -11 20.68 -11 20 C-11.99 19.67 -12.98 19.34 -14 19 C-16.67387686 15.48174098 -16.55442539 11.22539349 -16 7 C-12.58194609 -0.4871657 -7.49575204 -0.79970603 0 0 Z M-10 8 C-10.89592083 11.59919423 -10.89592083 11.59919423 -11 15 C-10.34 15 -9.68 15 -9 15 C-9 15.66 -9 16.32 -9 17 C-4.38492226 18.04214691 -4.38492226 18.04214691 0 17 C0 16.34 0 15.68 0 15 C0.66 15 1.32 15 2 15 C2.91172698 12.01616624 3.29737468 10.59474935 1.875 7.75 C-2.19575955 3.95062442 -5.9363405 4.38785822 -10 8 Z " fill="#2E2E2E" transform="translate(164,352)"/>
<path d="M0 0 C2.03125 1.3359375 2.03125 1.3359375 3.5 2.625 C3.5 3.285 3.5 3.945 3.5 4.625 C4.16 4.625 4.82 4.625 5.5 4.625 C5.58133791 6.54095968 5.63934367 8.45791932 5.6875 10.375 C5.73970703 11.97601563 5.73970703 11.97601563 5.79296875 13.609375 C5.4694088 16.93988541 4.84811426 18.28257124 2.5 20.625 C1.84 20.625 1.18 20.625 0.5 20.625 C0.5 21.285 0.5 21.945 0.5 22.625 C-4.06261004 25.25323159 -8.34981326 25.2992358 -13.5 24.625 C-17.35544798 22.62842873 -19.09805092 21.22792362 -21.5 17.625 C-22.19269894 12.04313525 -22.20070688 7.13022219 -19.8125 2 C-14.15186423 -3.81362592 -6.75745497 -4.05447298 0 0 Z M-13.4375 4.6875 C-15.67147653 7.45735609 -15.67147653 7.45735609 -16.125 10.625 C-15.26814736 14.73789267 -13.92264067 16.22186932 -10.5 18.625 C-6.95638757 18.625 -4.63408409 18.28350044 -1.5625 16.5 C0.10500169 13.55734995 -0.25969989 10.92912652 -0.5 7.625 C-0.83 6.965 -1.16 6.305 -1.5 5.625 C-2.16 5.625 -2.82 5.625 -3.5 5.625 C-3.5 4.965 -3.5 4.305 -3.5 3.625 C-8.76170314 2.27322913 -8.76170314 2.27322913 -13.4375 4.6875 Z " fill="#272727" transform="translate(253.5,386.375)"/>
<path d="M0 0 C0.99 0.33 1.98 0.66 3 1 C3.859375 2.81640625 3.859375 2.81640625 4 5 C2.890625 6.96484375 2.890625 6.96484375 1.25 8.9375 C-0.63481835 11.27170791 -2.23087804 13.39579092 -3.75 16 C-4.36875 16.99 -4.36875 16.99 -5 18 C-5.66 18 -6.32 18 -7 18 C-7.25652344 18.7321875 -7.51304687 19.464375 -7.77734375 20.21875 C-9.05785154 23.1315984 -10.51074293 25.07934116 -12.5625 27.5 C-18.18805086 34.33910662 -23.09029603 41.63544404 -28 49 C-28.66 49 -29.32 49 -30 49 C-30.37125 50.051875 -30.37125 50.051875 -30.75 51.125 C-32.16088026 54.37002459 -33.97895398 57.10316737 -36 60 C-36.33 58.68 -36.66 57.36 -37 56 C-38.485 56.495 -38.485 56.495 -40 57 C-37.72485466 52.20886728 -34.68313047 47.98711674 -31.6875 43.625 C-31.11837891 42.78710938 -30.54925781 41.94921875 -29.96289062 41.0859375 C-26.83454265 36.51732829 -23.58555219 32.21577723 -20 28 C-18.87361729 26.45343857 -17.76789105 24.89153308 -16.6875 23.3125 C-13.48310133 18.67694288 -10.19006025 14.11367202 -6.8671875 9.5625 C-4.55589842 6.39052168 -2.2744572 3.19845544 0 0 Z " fill="#898989" transform="translate(308,162)"/>
<path d="M0 0 C0.495 0.99 0.495 0.99 1 2 C0.01 2.33 -0.98 2.66 -2 3 C-2.515625 4.051875 -3.03125 5.10375 -3.5625 6.1875 C-7.05309582 12.664347 -14.10830486 15.29534398 -20.6875 17.8046875 C-26.25146954 19.99212061 -31.24996375 22.88194342 -36.375 25.9375 C-43.74084498 30.24787853 -50.93934747 34.12953988 -59 37 C-58.835 36.401875 -58.67 35.80375 -58.5 35.1875 C-57.8885876 32.88655664 -57.8885876 32.88655664 -58 30 C-57.06542969 29.53851563 -56.13085938 29.07703125 -55.16796875 28.6015625 C-39.71179373 20.93937341 -24.47185263 12.90091187 -9.40917969 4.4909668 C-8.61415039 4.04922119 -7.81912109 3.60747559 -7 3.15234375 C-5.948125 2.5644104 -5.948125 2.5644104 -4.875 1.96459961 C-3 1 -3 1 0 0 Z " fill="#636363" transform="translate(206,272)"/>
<path d="M0 0 C2.99452434 2.24589325 3.81623122 3.44869367 5 7 C5.39537729 12.23874905 4.80588657 15.53136583 2 20 C-2.44024967 22.96016644 -6.79281459 22.77651011 -12 22 C-15.125 19.5625 -15.125 19.5625 -17 17 C-17.33 16.67 -17.66 16.34 -18 16 C-18.07226502 14.14712498 -18.0838122 12.29166122 -18.0625 10.4375 C-18.05347656 9.42558594 -18.04445312 8.41367188 -18.03515625 7.37109375 C-18.02355469 6.58863281 -18.01195312 5.80617187 -18 5 C-17.34 5 -16.68 5 -16 5 C-15.67 4.01 -15.34 3.02 -15 2 C-14.34 2 -13.68 2 -13 2 C-13 1.34 -13 0.68 -13 0 C-8.53860475 -1.32827904 -4.50610002 -1.08510864 0 0 Z M-9 3 C-9 3.66 -9 4.32 -9 5 C-9.99 5.33 -10.98 5.66 -12 6 C-13.00023253 9.18255804 -13.15774716 10.61439583 -11.875 13.75 C-10.16797491 16.13379043 -10.16797491 16.13379043 -7.625 17.0625 C-4.84647339 17.19976522 -4.84647339 17.19976522 -2.1875 15.4375 C0.25747098 13.15382116 0.25747098 13.15382116 0.5 9.9375 C0.2022417 7.07145097 0.2022417 7.07145097 -1.125 5.1875 C-3.66676215 3.57771731 -6.0398108 3.32890991 -9 3 Z " fill="#292929" transform="translate(177,139)"/>
<path d="M0 0 C0.66 0 1.32 0 2 0 C0.60497699 3.04863565 -1.04543631 5.42763213 -3.1875 8 C-8.23719409 14.19354745 -12.97406221 20.61456264 -17.71948242 27.04296875 C-18.34314697 27.88214844 -18.96681152 28.72132813 -19.609375 29.5859375 C-20.16592773 30.3392334 -20.72248047 31.0925293 -21.29589844 31.86865234 C-23.06250376 34.07817447 -24.99022466 36.01266698 -27 38 C-28.13685992 39.77477955 -28.13685992 39.77477955 -29 41.5625 C-30.81954571 44.68984419 -31.97220172 46.1616939 -35 48 C-34.34 46.35 -33.68 44.7 -33 43 C-34.65 43.66 -36.3 44.32 -38 45 C-38 45.66 -38 46.32 -38 47 C-38.66 46.67 -39.32 46.34 -40 46 C-39.39671875 45.27554688 -38.7934375 44.55109375 -38.171875 43.8046875 C-33.38049211 38.0570603 -33.38049211 38.0570603 -29 32 C-26.39080787 28.08621181 -23.376237 24.56748639 -20.375 20.94921875 C-18.05888923 18.07312725 -15.8925468 15.13186966 -13.75 12.125 C-8.45819113 4.78576507 -8.45819113 4.78576507 -5 2 C-3.68 2 -2.36 2 -1 2 C-0.67 1.34 -0.34 0.68 0 0 Z " fill="#676767" transform="translate(224,284)"/>
<path d="M0 0 C1.60294922 0.15275391 1.60294922 0.15275391 3.23828125 0.30859375 C4.45064453 0.43427734 4.45064453 0.43427734 5.6875 0.5625 C5.6875 1.8825 5.6875 3.2025 5.6875 4.5625 C6.6775 4.8925 7.6675 5.2225 8.6875 5.5625 C7.3675 5.5625 6.0475 5.5625 4.6875 5.5625 C4.6875 6.2225 4.6875 6.8825 4.6875 7.5625 C3.93984375 7.62308594 3.1921875 7.68367187 2.421875 7.74609375 C1.43703125 7.82988281 0.4521875 7.91367188 -0.5625 8 C-2.02429688 8.12181641 -2.02429688 8.12181641 -3.515625 8.24609375 C-5.89871698 8.51568935 -8.04799474 8.78021636 -10.3125 9.5625 C-11.59686734 11.5462767 -11.59686734 11.5462767 -12.3125 13.5625 C-12.9725 13.2325 -13.6325 12.9025 -14.3125 12.5625 C-17.7895116 15.24928169 -18.53855909 18.34100414 -19.3125 22.5625 C-18.90742957 25.07588879 -18.19724547 27.15402622 -17.3125 29.5625 C-17.9725 29.5625 -18.6325 29.5625 -19.3125 29.5625 C-20.73508812 25.73929443 -21.55292276 22.64968695 -21.3125 18.5625 C-21.9725 18.5625 -22.6325 18.5625 -23.3125 18.5625 C-23.88393452 13.70530655 -22.23793034 11.35765287 -19.3125 7.5625 C-13.14969968 0.94876307 -8.95433089 -0.88559316 0 0 Z " fill="#5E5E5E" transform="translate(388.3125,159.4375)"/>
<path d="M0 0 C3.66008184 3.32734712 4.91464398 6.49501052 5.4375 11.375 C4.93562867 16.05913237 3.59237817 19.23179752 0.375 22.6875 C-3.01724899 24.4294657 -6.14550265 24.55900022 -9.9375 24.875 C-8.9475 23.885 -7.9575 22.895 -6.9375 21.875 C-7.5975 21.545 -8.2575 21.215 -8.9375 20.875 C-8.9375 20.215 -8.9375 19.555 -8.9375 18.875 C-6.9575 18.545 -4.9775 18.215 -2.9375 17.875 C-2.9375 17.215 -2.9375 16.555 -2.9375 15.875 C-2.2775 15.875 -1.6175 15.875 -0.9375 15.875 C-0.6218643 12.68524282 -0.6218643 12.68524282 -3.125 10.1875 C-5.69865965 7.64247818 -5.69865965 7.64247818 -8.75 7.5625 C-9.471875 7.665625 -10.19375 7.76875 -10.9375 7.875 C-10.9375 7.215 -10.9375 6.555 -10.9375 5.875 C-9.6175 5.875 -8.2975 5.875 -6.9375 5.875 C-6.6075 4.885 -6.2775 3.895 -5.9375 2.875 C-5.2775 2.875 -4.6175 2.875 -3.9375 2.875 C-3.9375 1.885 -3.9375 0.895 -3.9375 -0.125 C-5.54213449 0.18508884 -7.14619231 0.49816287 -8.75 0.8125 C-10.08998047 1.07353516 -10.08998047 1.07353516 -11.45703125 1.33984375 C-14.05147171 1.85241153 -14.05147171 1.85241153 -16.9375 2.875 C-16.9375 2.215 -16.9375 1.555 -16.9375 0.875 C-11.66484042 -2.18143777 -5.6347431 -2.15798672 0 0 Z " fill="#5D5D5D" transform="translate(329.9375,135.125)"/>
<path d="M0 0 C0.33 0.99 0.66 1.98 1 3 C1.66 3.66 2.32 4.32 3 5 C1.54970675 7.17245573 0.09044056 9.33780089 -1.375 11.5 C-1.7875 12.12003906 -2.2 12.74007812 -2.625 13.37890625 C-3.69899668 14.95525621 -4.84488532 16.48208757 -6 18 C-6.66 18 -7.32 18 -8 18 C-8.37125 19.051875 -8.37125 19.051875 -8.75 20.125 C-10.16088026 23.37002459 -11.97895398 26.10316737 -14 29 C-14.33 27.68 -14.66 26.36 -15 25 C-15.99 25.33 -16.98 25.66 -18 26 C-15.69658171 21.14181882 -12.59804171 16.85977006 -9.5625 12.4375 C-8.68368164 11.14295898 -8.68368164 11.14295898 -7.78710938 9.82226562 C-7.21927734 8.99275391 -6.65144531 8.16324219 -6.06640625 7.30859375 C-5.55021729 6.55376709 -5.03402832 5.79894043 -4.50219727 5.02124023 C-3.12056893 3.16222821 -1.6841683 1.58423072 0 0 Z " fill="#686868" transform="translate(286,193)"/>
<path d="M0 0 C4.35233846 1.80575745 7.51954657 3.91498026 10 8 C10.74252547 12.4769918 10.54587651 16.67840424 8.8125 20.875 C3.8481555 26.69526596 3.8481555 26.69526596 -0.55859375 27.421875 C-5.11647135 27.64451217 -8.85540633 27.69782414 -12.5625 24.8125 C-15.54643589 21.36949705 -17.11403313 19.33178098 -16.88671875 14.68359375 C-16.65166848 12.44184566 -16.35871359 10.22499377 -16 8 C-15.67 8 -15.34 8 -15 8 C-14.93941406 8.75925781 -14.87882813 9.51851562 -14.81640625 10.30078125 C-14.73261719 11.29464844 -14.64882812 12.28851563 -14.5625 13.3125 C-14.44068359 14.79169922 -14.44068359 14.79169922 -14.31640625 16.30078125 C-14.08187441 19.09375599 -14.08187441 19.09375599 -13 22 C-8.50115951 25.02983135 -3.19379845 24.72221458 2 24 C5.37768449 22.28944376 5.37768449 22.28944376 7 19 C7.79276065 14.65943919 7.4636543 11.14693432 5.8125 7.0625 C3.56307739 4.5028122 2.32600484 3.79534898 -1 3 C-4.00862905 2.85336094 -6.99087894 2.88199525 -10 3 C-6.67186815 -0.07212171 -4.48329161 -0.61535375 0 0 Z " fill="#DDDDDD" transform="translate(174,136)"/>
<path d="M0 0 C-2 3 -2 3 -3.9453125 3.51171875 C-4.66460937 3.56972656 -5.38390625 3.62773437 -6.125 3.6875 C-8.043125 3.8421875 -8.043125 3.8421875 -10 4 C-10 4.66 -10 5.32 -10 6 C-12.9195043 6.9731681 -15.05444951 7.1929546 -18.10546875 7.31640625 C-19.57983398 7.37924805 -19.57983398 7.37924805 -21.08398438 7.44335938 C-22.62022461 7.50233398 -22.62022461 7.50233398 -24.1875 7.5625 C-25.74114258 7.62727539 -25.74114258 7.62727539 -27.32617188 7.69335938 C-29.8839819 7.79944366 -32.44188845 7.90150146 -35 8 C-34 6 -34 6 -31.91796875 5.25390625 C-31.01691406 5.02574219 -30.11585938 4.79757812 -29.1875 4.5625 C-28.19105469 4.30984375 -27.19460937 4.0571875 -26.16796875 3.796875 C-25.12253906 3.53390625 -24.07710937 3.2709375 -23 3 C-22.00613281 2.71640625 -21.01226562 2.4328125 -19.98828125 2.140625 C-13.18625324 0.25561855 -7.0476705 -0.37458091 0 0 Z " fill="#757575" transform="translate(176,264)"/>
<path d="M0 0 C-0.99 0.33 -1.98 0.66 -3 1 C-3 1.66 -3 2.32 -3 3 C-0.36 3 2.28 3 5 3 C5 3.33 5 3.66 5 4 C0.67785038 4.86053919 -3.64547271 5.71483773 -7.9699707 6.56347656 C-9.43970667 6.85279594 -10.90911365 7.14379196 -12.37817383 7.43652344 C-14.49475347 7.8579758 -16.61245872 8.27330386 -18.73046875 8.6875 C-20.00301514 8.93886719 -21.27556152 9.19023437 -22.58666992 9.44921875 C-25.48053541 9.91617823 -28.08089453 10.11705686 -31 10 C-28.01353231 8.00902154 -25.40312738 7.05875074 -22 6 C-23.32 5.34 -24.64 4.68 -26 4 C-22.79363027 3.32364936 -19.58463311 2.66067552 -16.375 2 C-15.47136719 1.80921875 -14.56773437 1.6184375 -13.63671875 1.421875 C-9.01796444 0.47789602 -4.74352828 -0.25214768 0 0 Z " fill="#9B9B9B" transform="translate(197,259)"/>
<path d="M0 0 C-3.63 0.99 -7.26 1.98 -11 3 C-6.71 3 -2.42 3 2 3 C-5.70029058 8.13352705 -17.04480449 7.29043877 -26 7 C-24.48321024 4.60441103 -23.54953678 3.21609652 -20.87109375 2.1628418 C-20.06800781 2.00984619 -19.26492187 1.85685059 -18.4375 1.69921875 C-17.55835938 1.52712891 -16.67921875 1.35503906 -15.7734375 1.17773438 C-14.85820312 1.01595703 -13.94296875 0.85417969 -13 0.6875 C-12.08476562 0.50638672 -11.16953125 0.32527344 -10.2265625 0.13867188 C-3.42727605 -1.14242535 -3.42727605 -1.14242535 0 0 Z " fill="#818181" transform="translate(153,268)"/>
<path d="M0 0 C0.66 0.33 1.32 0.66 2 1 C3.58299585 5.74898755 3.55207896 9.56459472 1.75 14.25 C-0.05688232 17.08938651 -1.02305497 18.4712985 -4 20 C-6.68009012 20.52470095 -9.26910276 20.77242523 -12 21 C-11.01 20.01 -10.02 19.02 -9 18 C-9.66 17.67 -10.32 17.34 -11 17 C-11 16.34 -11 15.68 -11 15 C-9.02 14.67 -7.04 14.34 -5 14 C-5 13.34 -5 12.68 -5 12 C-3.02 11.67 -1.04 11.34 1 11 C0.67 7.37 0.34 3.74 0 0 Z " fill="#7D7D7D" transform="translate(332,139)"/>
<path d="M0 0 C0.99 0.33 1.98 0.66 3 1 C3.859375 2.81640625 3.859375 2.81640625 4 5 C2.890625 6.96484375 2.890625 6.96484375 1.25 8.9375 C-1.09450237 11.85449713 -3.15975029 14.72844496 -5 18 C-5.66 17.67 -6.32 17.34 -7 17 C-6.01 15.02 -5.02 13.04 -4 11 C-4.99 11.99 -5.98 12.98 -7 14 C-7.66 13.67 -8.32 13.34 -9 13 C-7.68889201 11.01989841 -6.37618664 9.04088963 -5.0625 7.0625 C-4.50272461 6.21655273 -4.50272461 6.21655273 -3.93164062 5.35351562 C-1.11328125 1.11328125 -1.11328125 1.11328125 0 0 Z " fill="#878787" transform="translate(308,162)"/>
<path d="M0 0 C3.44935605 2.2995707 3.89804378 3.10077031 5 7 C5.99733282 14.47999619 3.45545207 18.14789067 -1 24 C-1.66 24.99 -2.32 25.98 -3 27 C-7.81221774 27.46271324 -11.52029862 26.74817615 -16 25 C-16 24.67 -16 24.34 -16 24 C-15.28972656 24.01160156 -14.57945312 24.02320313 -13.84765625 24.03515625 C-12.92855469 24.04417969 -12.00945312 24.05320313 -11.0625 24.0625 C-9.68771484 24.07990234 -9.68771484 24.07990234 -8.28515625 24.09765625 C-6.03406673 24.25949049 -6.03406673 24.25949049 -5 23 C-4.21625 22.2575 -3.4325 21.515 -2.625 20.75 C0.81099903 17.26140799 0.81099903 17.26140799 3 13 C2.57404849 8.50224085 1.4250303 4.27509091 0 0 Z " fill="#DADADA" transform="translate(399,172)"/>
<path d="M0 0 C0.66 0.33 1.32 0.66 2 1 C0.68 2.65 -0.64 4.3 -2 6 C-0.3603125 4.9790625 -0.3603125 4.9790625 1.3125 3.9375 C3.17578125 2.77734375 3.17578125 2.77734375 5 2 C5.99 2.33 6.98 2.66 8 3 C5.39704724 4.31495542 2.79271967 5.62704986 0.1875 6.9375 C-0.55048828 7.31068359 -1.28847656 7.68386719 -2.04882812 8.06835938 C-2.76103516 8.42607422 -3.47324219 8.78378906 -4.20703125 9.15234375 C-5.18893433 9.6472229 -5.18893433 9.6472229 -6.19067383 10.15209961 C-8 11 -8 11 -11 12 C-10.835 11.401875 -10.67 10.80375 -10.5 10.1875 C-9.8885876 7.88655664 -9.8885876 7.88655664 -10 5 C-8.38007835 4.13624104 -6.75388139 3.28424146 -5.125 2.4375 C-4.22007812 1.96183594 -3.31515625 1.48617188 -2.3828125 0.99609375 C-1.20332031 0.50302734 -1.20332031 0.50302734 0 0 Z " fill="#7E7E7E" transform="translate(158,297)"/>
<path d="M0 0 C0.66 0 1.32 0 2 0 C0.50923566 3.2826932 -1.38620321 5.93077441 -3.625 8.75 C-4.25664062 9.54921875 -4.88828125 10.3484375 -5.5390625 11.171875 C-6.02117187 11.77515625 -6.50328125 12.3784375 -7 13 C-7.66 12.34 -8.32 11.68 -9 11 C-10.32 12.32 -11.64 13.64 -13 15 C-13.66 14.67 -14.32 14.34 -15 14 C-14.09232898 12.55680308 -13.17343894 11.12065894 -12.25 9.6875 C-11.73953125 8.88699219 -11.2290625 8.08648437 -10.703125 7.26171875 C-8.95426724 4.93926774 -7.5008152 3.47471736 -5 2 C-3.68 2 -2.36 2 -1 2 C-0.67 1.34 -0.34 0.68 0 0 Z " fill="#7B7B7B" transform="translate(224,284)"/>
<path d="M0 0 C2 3 2 3 1.8125 5.375 C0.27795677 10.33275506 -1.83416159 13.82281878 -6.5625 16.33984375 C-12.10229288 17.84020432 -18.43527394 17.09073856 -24 16 C-25.953125 14.44140625 -25.953125 14.44140625 -27 13 C-26.67 12.34 -26.34 11.68 -26 11 C-24.515 11.99 -24.515 11.99 -23 13 C-17.84137225 14.65624654 -12.25516882 14.6237701 -7.0625 13.1875 C-4.69924924 12.03019647 -4.69924924 12.03019647 -3 9 C-2.34 9 -1.68 9 -1 9 C-0.67 6.03 -0.34 3.06 0 0 Z " fill="#DEDEDE" transform="translate(337,328)"/>
<path d="M0 0 C0 0.66 0 1.32 0 2 C-14.59681093 5.44419134 -14.59681093 5.44419134 -22 5 C-21 3 -21 3 -18.84765625 2.1484375 C-12.41484668 0.36204718 -6.66847413 -0.39056139 0 0 Z " fill="#080808" transform="translate(163,267)"/>
<path d="M0 0 C0.33 0.99 0.66 1.98 1 3 C1.66 3.66 2.32 4.32 3 5 C0.69 8.3 -1.62 11.6 -4 15 C-4.33 14.34 -4.66 13.68 -5 13 C-4.67 12.01 -4.34 11.02 -4 10 C-4.99 10.99 -5.98 11.98 -7 13 C-7.66 12.67 -8.32 12.34 -9 12 C-7.68858144 10.18671738 -6.37583526 8.37439486 -5.0625 6.5625 C-3.96615234 5.04849609 -3.96615234 5.04849609 -2.84765625 3.50390625 C-1 1 -1 1 0 0 Z " fill="#929292" transform="translate(286,193)"/>
<path d="M0 0 C0.33 0.66 0.66 1.32 1 2 C0.01 2.33 -0.98 2.66 -2 3 C-2.86625 4.6396875 -2.86625 4.6396875 -3.75 6.3125 C-6.02334336 10.58603306 -8.6157017 12.05142298 -13 14 C-13.66 13.67 -14.32 13.34 -15 13 C-14.01 12.67 -13.02 12.34 -12 12 C-11.855625 11.4225 -11.71125 10.845 -11.5625 10.25 C-10.75410716 7.01642864 -9.32068776 5.38175849 -7 3 C-4.70404527 1.75841075 -2.46400862 0.90031084 0 0 Z " fill="#757575" transform="translate(206,272)"/>
<path d="M0 0 C6.91428571 0.94285714 6.91428571 0.94285714 10 3 C10.33 3.99 10.66 4.98 11 6 C8.39908727 7.30045636 7.2944464 6.78732009 4.5 6.125 C3.7059375 5.94195312 2.911875 5.75890625 2.09375 5.5703125 C0 5 0 5 -2 4 C-1.34 2.68 -0.68 1.36 0 0 Z " fill="#232323" transform="translate(149,220)"/>
<path d="M0 0 C-0.99 0.33 -1.98 0.66 -3 1 C-3 1.66 -3 2.32 -3 3 C-0.36 3 2.28 3 5 3 C5 3.33 5 3.66 5 4 C-0.80766296 5.5056904 -5.9981863 6.21824777 -12 6 C-12 5.67 -12 5.34 -12 5 C-10.02 5 -8.04 5 -6 5 C-6.33 4.34 -6.66 3.68 -7 3 C-9.64 3 -12.28 3 -15 3 C-15 2.67 -15 2.34 -15 2 C-9.92523206 0.73694665 -5.27203646 -0.27036084 0 0 Z " fill="#B9B9B9" transform="translate(197,259)"/>
<path d="M0 0 C0.33 0 0.66 0 1 0 C1.16435547 1.03060547 1.16435547 1.03060547 1.33203125 2.08203125 C1.49058594 2.98308594 1.64914063 3.88414062 1.8125 4.8125 C1.96332031 5.70582031 2.11414063 6.59914063 2.26953125 7.51953125 C3.063841 10.21678629 3.96740147 11.14560189 6 13 C6 13.66 6 14.32 6 15 C9.63 15.66 13.26 16.32 17 17 C17 17.33 17 17.66 17 18 C12.32120251 18.3743038 8.92219989 18.44402217 4.625 16.375 C0.77465156 12.89135141 -0.85053939 9.94298792 -1.25 4.75 C-1 2 -1 2 0 0 Z " fill="#E9E9E9" transform="translate(147,359)"/>
<path d="M0 0 C0.33 0.66 0.66 1.32 1 2 C-0.72844182 6.41164198 -2.61900432 10.23278018 -6.8125 12.5625 C-7.534375 12.706875 -8.25625 12.85125 -9 13 C-9 9.18692647 -7.96457553 7.25171122 -6 4 C-3.375 2.1875 -3.375 2.1875 -1 1 C-0.67 0.67 -0.34 0.34 0 0 Z " fill="#2E2E2E" transform="translate(304,172)"/>
<path d="M0 0 C0.721875 0.103125 1.44375 0.20625 2.1875 0.3125 C1.25705722 3.53696551 0.77646973 4.97553207 -2.1953125 6.67578125 C-3.10023438 6.98902344 -4.00515625 7.30226562 -4.9375 7.625 C-5.84757812 7.95113281 -6.75765625 8.27726563 -7.6953125 8.61328125 C-8.39398438 8.84402344 -9.09265625 9.07476562 -9.8125 9.3125 C-7.70242189 4.80329198 -5.2915702 0.58795224 0 0 Z " fill="#333333" transform="translate(345.8125,198.6875)"/>
<path d="M0 0 C-1.55500981 3.81684226 -4.03595495 6.19195732 -7 9 C-6.34 7.35 -5.68 5.7 -5 4 C-6.65 4.66 -8.3 5.32 -10 6 C-10 6.66 -10 7.32 -10 8 C-10.66 7.67 -11.32 7.34 -12 7 C-6.4893617 0 -6.4893617 0 0 0 Z " fill="#989898" transform="translate(196,323)"/>
<path d="M0 0 C0.5775 0.2475 1.155 0.495 1.75 0.75 C1.75 1.74 1.75 2.73 1.75 3.75 C0.46086513 4.42154933 -0.83140204 5.08708859 -2.125 5.75 C-2.84429687 6.12125 -3.56359375 6.4925 -4.3046875 6.875 C-6.25 7.75 -6.25 7.75 -8.25 7.75 C-6.64613593 4.0076505 -4.56199942 -0.50688882 0 0 Z " fill="#252525" transform="translate(164.25,295.25)"/>
<path d="M0 0 C3 0 3 0 5 1 C4.50168276 4.68754757 3.89932357 6.60490662 1 9 C0.67 8.34 0.34 7.68 0 7 C-0.99 7 -1.98 7 -3 7 C-2.690625 6.401875 -2.38125 5.80375 -2.0625 5.1875 C-0.89790296 2.91043228 -0.89790296 2.91043228 0 0 Z " fill="#6A6A6A" transform="translate(273,262)"/>
<path d="M0 0 C0.99 1.32 1.98 2.64 3 4 C2 6 1 8 0 10 C-1.32 9.67 -2.64 9.34 -4 9 C-3.52418802 7.68628013 -3.04424851 6.37405454 -2.5625 5.0625 C-2.29566406 4.33160156 -2.02882813 3.60070312 -1.75390625 2.84765625 C-1 1 -1 1 0 0 Z " fill="#7E7E7E" transform="translate(290,187)"/>
<path d="M0 0 C0.66 0.33 1.32 0.66 2 1 C2.34615998 6.65394631 1.43425238 10.03006806 -1 15 C-1.99 14.67 -2.98 14.34 -4 14 C-3.68160156 13.43667969 -3.36320312 12.87335938 -3.03515625 12.29296875 C-1.93294941 9.85147661 -1.64397458 7.9703111 -1.4375 5.3125 C-1.09964413 1.09964413 -1.09964413 1.09964413 0 0 Z M0 3 C1 7 1 7 1 7 Z " fill="#D9D9D9" transform="translate(262,98)"/>
<path d="M0 0 C0 0.66 0 1.32 0 2 C-3.97425543 5.10488705 -8.04186387 6.03998497 -13 6 C-16 5.0625 -16 5.0625 -18 4 C-18 3.34 -18 2.68 -18 2 C-17.484375 2.165 -16.96875 2.33 -16.4375 2.5 C-11.93582504 3.4234205 -8.30455629 3.69576335 -4.1875 1.5 C-2 0 -2 0 0 0 Z " fill="#E1E1E1" transform="translate(124,222)"/>
<path d="M0 0 C0 3.30240774 -0.78050519 4.95126297 -2 8 C-2.73021165 10.65441802 -3.36420042 13.32055889 -4 16 C-4.66 15.67 -5.32 15.34 -6 15 C-5.53397428 9.29118493 -4.22127725 4.22127725 0 0 Z " fill="#BABABA" transform="translate(238,93)"/>
<path d="M0 0 C0.33 1.32 0.66 2.64 1 4 C-3.5 8 -3.5 8 -8 8 C-6.54098339 4.15350168 -4.5612873 2.91761624 -1 1 C-0.67 0.67 -0.34 0.34 0 0 Z " fill="#515151" transform="translate(198,316)"/>
<path d="M0 0 C-1 2 -1 2 -2.5625 2.625 C-6.06398181 3.16368951 -9.45806833 3.05903219 -13 3 C-13 2.34 -13 1.68 -13 1 C-11.39796533 0.63631108 -9.79325797 0.28438048 -8.1875 -0.0625 C-7.29417969 -0.25972656 -6.40085938 -0.45695312 -5.48046875 -0.66015625 C-3 -1 -3 -1 0 0 Z " fill="#0C0C0C" transform="translate(207,259)"/>
<path d="M0 0 C0.33 0 0.66 0 1 0 C1.06058594 0.75925781 1.12117187 1.51851562 1.18359375 2.30078125 C1.26738281 3.29464844 1.35117188 4.28851563 1.4375 5.3125 C1.55931641 6.79169922 1.55931641 6.79169922 1.68359375 8.30078125 C1.91812559 11.09375599 1.91812559 11.09375599 3 14 C5.00016466 15.20882096 5.00016466 15.20882096 7 16 C6.01 16.33 5.02 16.66 4 17 C0.20534695 13.20534695 -0.55447443 10.22788652 -1.01953125 5.0859375 C-1 3 -1 3 0 0 Z " fill="#CFCFCF" transform="translate(158,144)"/>
<path d="M0 0 C0.66 0.99 1.32 1.98 2 3 C1.44570313 3.48210937 0.89140625 3.96421875 0.3203125 4.4609375 C-0.40414063 5.09257812 -1.12859375 5.72421875 -1.875 6.375 C-2.59429687 7.00148438 -3.31359375 7.62796875 -4.0546875 8.2734375 C-5.4076598 9.47426834 -6.7208345 10.7208345 -8 12 C-8.66 11.34 -9.32 10.68 -10 10 C-8.625 8.5 -8.625 8.5 -7 7 C-6.34 7 -5.68 7 -5 7 C-5 6.34 -5 5.68 -5 5 C-4.34 5 -3.68 5 -3 5 C-2.690625 4.360625 -2.38125 3.72125 -2.0625 3.0625 C-1 1 -1 1 0 0 Z " fill="#646464" transform="translate(417,407)"/>
<path d="M0 0 C0 3 0 3 -1.5 4.6875 C-1.995 5.120625 -2.49 5.55375 -3 6 C-3.33 5.34 -3.66 4.68 -4 4 C-5.32 5.32 -6.64 6.64 -8 8 C-8.66 7.67 -9.32 7.34 -10 7 C-8.375 4.0625 -8.375 4.0625 -6 1 C-2.75 0.125 -2.75 0.125 0 0 Z " fill="#8C8C8C" transform="translate(219,291)"/>
<path d="M0 0 C-0.33 0.66 -0.66 1.32 -1 2 C-3.72265625 2.4140625 -3.72265625 2.4140625 -7.0625 2.625 C-8.16722656 2.69976562 -9.27195313 2.77453125 -10.41015625 2.8515625 C-11.26480469 2.90054687 -12.11945313 2.94953125 -13 3 C-12.67 2.01 -12.34 1.02 -12 0 C-10.37585622 -0.19477739 -8.75063577 -0.38059458 -7.125 -0.5625 C-6.22007812 -0.66691406 -5.31515625 -0.77132813 -4.3828125 -0.87890625 C-2 -1 -2 -1 0 0 Z " fill="#090909" transform="translate(192,262)"/>
<path d="M0 0 C0.33 0.66 0.66 1.32 1 2 C0.06421005 4.35981813 -0.93347808 6.69631264 -2 9 C-3.32 8.67 -4.64 8.34 -6 8 C-6 6.68 -6 5.36 -6 4 C-5.01 4 -4.02 4 -3 4 C-2.67 3.01 -2.34 2.02 -2 1 C-1.34 0.67 -0.68 0.34 0 0 Z " fill="#373737" transform="translate(282,202)"/>
<path d="M0 0 C0 3.29657856 -0.74333269 5.16364428 -2 8.1875 C-2.37125 9.08855469 -2.7425 9.98960937 -3.125 10.91796875 C-3.41375 11.60503906 -3.7025 12.29210937 -4 13 C-4.33 13 -4.66 13 -5 13 C-5 11.35 -5 9.7 -5 8 C-5.99 7.67 -6.98 7.34 -8 7 C-7.67 5.68 -7.34 4.36 -7 3 C-6.67 3.99 -6.34 4.98 -6 6 C-5.34 6.33 -4.68 6.66 -4 7 C-3.71125 6.21625 -3.4225 5.4325 -3.125 4.625 C-2 2 -2 2 0 0 Z " fill="#CACACA" transform="translate(103,201)"/>
<path d="M0 0 C2.475 0.495 2.475 0.495 5 1 C5 1.66 5 2.32 5 3 C9.455 3.99 9.455 3.99 14 5 C14 5.33 14 5.66 14 6 C6.02201622 6.62572422 6.02201622 6.62572422 1.9375 4.125 C0 2 0 2 0 0 Z " fill="#E1E1E1" transform="translate(377,271)"/>
<path d="M0 0 C0.66 0.66 1.32 1.32 2 2 C1.75 5.5625 1.75 5.5625 1 9 C0.01 9.495 0.01 9.495 -1 10 C-1 8.68 -1 7.36 -1 6 C-1.99 6.33 -2.98 6.66 -4 7 C-2.79618552 4.50638429 -1.54571278 2.31856917 0 0 Z " fill="#888888" transform="translate(272,212)"/>
<path d="M0 0 C1.32 0 2.64 0 4 0 C5.8125 2.25 5.8125 2.25 7 5 C6.6875 7.3125 6.6875 7.3125 6 9 C3.22017379 7.6100869 3.12536659 5.81341647 2 3 C1.34 2.67 0.68 2.34 0 2 C0 1.34 0 0.68 0 0 Z " fill="#E1E1E1" transform="translate(332,319)"/>
<path d="M0 0 C0.66 0.33 1.32 0.66 2 1 C2 1.66 2 2.32 2 3 C-1.96 3 -5.92 3 -10 3 C-5.78622182 -0.16033363 -4.9510716 -0.43052797 0 0 Z " fill="#CCCCCC" transform="translate(174,136)"/>
<path d="M0 0 C1.32 0 2.64 0 4 0 C4 0.66 4 1.32 4 2 C2.04072937 3.7143618 0.04119788 5.38405168 -2 7 C-2.66 6.67 -3.32 6.34 -4 6 C-2.25 3 -2.25 3 0 0 Z " fill="#686868" transform="translate(303,169)"/>
<path d="M0 0 C0.66 0 1.32 0 2 0 C5.12940055 3.97193147 5.29162929 7.04230204 5 12 C4.67 12 4.34 12 4 12 C3.34 9.36 2.68 6.72 2 4 C1.34 4 0.68 4 0 4 C-0.33 3.01 -0.66 2.02 -1 1 C-0.67 0.67 -0.34 0.34 0 0 Z " fill="#E8E8E8" transform="translate(257,387)"/>
<path d="M0 0 C0.99 0.33 1.98 0.66 3 1 C2.2884375 1.680625 2.2884375 1.680625 1.5625 2.375 C-0.09027808 3.93258204 -0.09027808 3.93258204 -1 6 C-1.99 6 -2.98 6 -4 6 C-4 5.01 -4 4.02 -4 3 C-3.34 3 -2.68 3 -2 3 C-2 2.34 -2 1.68 -2 1 C-1.34 0.67 -0.68 0.34 0 0 Z " fill="#4E4E4E" transform="translate(234,218)"/>
<path d="M0 0 C0.2475 0.61875 0.495 1.2375 0.75 1.875 C2.20628639 4.35068687 3.37812506 4.95125002 6 6 C4.1875 6.6875 4.1875 6.6875 2 7 C0.1875 5.8125 0.1875 5.8125 -1 4 C-0.6875 1.8125 -0.6875 1.8125 0 0 Z " fill="#DBDBDB" transform="translate(372,187)"/>
<path d="M0 0 C0.33 0.66 0.66 1.32 1 2 C-3.29 1.34 -7.58 0.68 -12 0 C-12 -0.33 -12 -0.66 -12 -1 C-7.33533582 -1.91464004 -4.23405029 -2.36608693 0 0 Z " fill="#CDCDCD" transform="translate(398,252)"/>
<path d="M0 0 C2.25 0.25 2.25 0.25 4 1 C3.67 1.66 3.34 2.32 3 3 C0.67843403 3.40729228 -1.6568787 3.74438677 -4 4 C-2.25 1.9375 -2.25 1.9375 0 0 Z " fill="#090909" transform="translate(237,218)"/>
<path d="M0 0 C0.66 0 1.32 0 2 0 C2.99 2.64 3.98 5.28 5 8 C4.01 8 3.02 8 2 8 C0.23537317 4.91190305 0 3.76687864 0 0 Z " fill="#EEEEEE" transform="translate(99,214)"/>
<path d="M0 0 C0.33 0 0.66 0 1 0 C1.36625971 4.51720311 1.36625971 4.51720311 -0.375 6.8125 C-2 8 -2 8 -4 8 C-2.66666667 5.33333333 -1.33333333 2.66666667 0 0 Z " fill="#D6D6D6" transform="translate(172,366)"/>
<path d="M0 0 C1.125 3.75 1.125 3.75 0 6 C-1.32 5.67 -2.64 5.34 -4 5 C-2.68 3.35 -1.36 1.7 0 0 Z " fill="#3D3D3D" transform="translate(290,191)"/>
</svg>
